<?xml version="1.0" encoding="utf-8" standalone="no"?>
<!DOCTYPE svg PUBLIC "-//W3C//DTD SVG 1.1//EN"
  "http://www.w3.org/Graphics/SVG/1.1/DTD/svg11.dtd">
<svg xmlns:xlink="http://www.w3.org/1999/xlink" width="571.443437pt" height="438.214062pt" viewBox="0 0 571.443437 438.214062" xmlns="http://www.w3.org/2000/svg" version="1.1">
 <metadata>
  <rdf:RDF xmlns:dc="http://purl.org/dc/elements/1.1/" xmlns:cc="http://creativecommons.org/ns#" xmlns:rdf="http://www.w3.org/1999/02/22-rdf-syntax-ns#">
   <cc:Work>
    <dc:type rdf:resource="http://purl.org/dc/dcmitype/StillImage"/>
    <dc:date>2025-08-06T19:18:18.063315</dc:date>
    <dc:format>image/svg+xml</dc:format>
    <dc:creator>
     <cc:Agent>
      <dc:title>Matplotlib v3.10.5, https://matplotlib.org/</dc:title>
     </cc:Agent>
    </dc:creator>
   </cc:Work>
  </rdf:RDF>
 </metadata>
 <defs>
  <style type="text/css">*{stroke-linejoin: round; stroke-linecap: butt}</style>
 </defs>
 <g id="figure_1">
  <g id="patch_1">
   <path d="M 0 438.214062 
L 571.443437 438.214062 
L 571.443437 0 
L 0 0 
z
" style="fill: #ffffff"/>
  </g>
  <g id="axes_1">
   <g id="patch_2">
    <path d="M 452.137969 234.425937 
C 452.137969 211.102406 447.543742 188.005666 438.618213 166.457533 
C 429.692683 144.9094 416.609431 125.328929 400.117204 108.836702 
C 383.624977 92.344475 364.044507 79.261223 342.496373 70.335694 
C 320.94824 61.410165 297.8515 56.815937 274.527969 56.815937 
C 251.204437 56.815937 228.107698 61.410165 206.559564 70.335694 
C 185.011431 79.261223 165.430961 92.344475 148.938733 108.836702 
C 132.446506 125.328929 119.363254 144.9094 110.437725 166.457533 
C 101.512196 188.005666 96.917969 211.102406 96.917969 234.425937 
C 96.917969 257.749469 101.512196 280.846209 110.437725 302.394342 
C 119.363254 323.942475 132.446506 343.522946 148.938733 360.015173 
C 165.430961 376.5074 185.011431 389.590652 206.559564 398.516181 
C 228.107698 407.44171 251.204437 412.035937 274.527969 412.035937 
C 297.8515 412.035937 320.94824 407.44171 342.496373 398.516181 
C 364.044507 389.590652 383.624977 376.5074 400.117204 360.015173 
C 416.609431 343.522946 429.692683 323.942475 438.618213 302.394342 
C 447.543742 280.846209 452.137969 257.749469 452.137969 234.425937 
M 274.527969 234.425937 
C 274.527969 234.425937 274.527969 234.425937 274.527969 234.425937 
C 274.527969 234.425937 274.527969 234.425937 274.527969 234.425937 
C 274.527969 234.425937 274.527969 234.425937 274.527969 234.425937 
C 274.527969 234.425937 274.527969 234.425937 274.527969 234.425937 
C 274.527969 234.425937 274.527969 234.425937 274.527969 234.425937 
C 274.527969 234.425937 274.527969 234.425937 274.527969 234.425937 
C 274.527969 234.425937 274.527969 234.425937 274.527969 234.425937 
C 274.527969 234.425937 274.527969 234.425937 274.527969 234.425937 
C 274.527969 234.425937 274.527969 234.425937 274.527969 234.425937 
C 274.527969 234.425937 274.527969 234.425937 274.527969 234.425937 
C 274.527969 234.425937 274.527969 234.425937 274.527969 234.425937 
C 274.527969 234.425937 274.527969 234.425937 274.527969 234.425937 
C 274.527969 234.425937 274.527969 234.425937 274.527969 234.425937 
C 274.527969 234.425937 274.527969 234.425937 274.527969 234.425937 
C 274.527969 234.425937 274.527969 234.425937 274.527969 234.425937 
C 274.527969 234.425937 274.527969 234.425937 274.527969 234.425937 
z
" style="fill: #ffffff"/>
   </g>
   <g id="patch_3">
    <path d="M 274.527969 145.620937 
L 274.527969 234.425937 
L 274.527969 264.027604 
L 274.527969 234.425937 
z
" clip-path="url(#p1cbd657acd)" style="fill: #1f77b4; opacity: 0.25"/>
   </g>
   <g id="patch_4">
    <path d="M 274.527969 56.815937 
L 274.527969 234.425937 
L 274.527969 264.027604 
L 244.926302 234.425937 
z
" clip-path="url(#p1cbd657acd)" style="fill: #ff7f0e; opacity: 0.25"/>
   </g>
   <g id="patch_5">
    <path d="M 274.527969 56.815937 
L 274.527969 234.425937 
L 274.527969 264.027604 
L 274.527969 234.425937 
z
" clip-path="url(#p1cbd657acd)" style="fill: #2ca02c; opacity: 0.25"/>
   </g>
   <g id="matplotlib.axis_1">
    <g id="xtick_1">
     <g id="line2d_1">
      <path d="M 274.527969 234.425937 
L 274.527969 56.815937 
" clip-path="url(#p1cbd657acd)" style="fill: none; stroke: #b0b0b0; stroke-width: 0.8; stroke-linecap: square"/>
     </g>
     <g id="text_1">
      <!-- bold_rigorous_research_approaches_rubric -->
      <g transform="translate(167.981094 45.43625) scale(0.1 -0.1)">
       <defs>
        <path id="DejaVuSans-62" d="M 3116 1747 
Q 3116 2381 2855 2742 
Q 2594 3103 2138 3103 
Q 1681 3103 1420 2742 
Q 1159 2381 1159 1747 
Q 1159 1113 1420 752 
Q 1681 391 2138 391 
Q 2594 391 2855 752 
Q 3116 1113 3116 1747 
z
M 1159 2969 
Q 1341 3281 1617 3432 
Q 1894 3584 2278 3584 
Q 2916 3584 3314 3078 
Q 3713 2572 3713 1747 
Q 3713 922 3314 415 
Q 2916 -91 2278 -91 
Q 1894 -91 1617 61 
Q 1341 213 1159 525 
L 1159 0 
L 581 0 
L 581 4863 
L 1159 4863 
L 1159 2969 
z
" transform="scale(0.015625)"/>
        <path id="DejaVuSans-6f" d="M 1959 3097 
Q 1497 3097 1228 2736 
Q 959 2375 959 1747 
Q 959 1119 1226 758 
Q 1494 397 1959 397 
Q 2419 397 2687 759 
Q 2956 1122 2956 1747 
Q 2956 2369 2687 2733 
Q 2419 3097 1959 3097 
z
M 1959 3584 
Q 2709 3584 3137 3096 
Q 3566 2609 3566 1747 
Q 3566 888 3137 398 
Q 2709 -91 1959 -91 
Q 1206 -91 779 398 
Q 353 888 353 1747 
Q 353 2609 779 3096 
Q 1206 3584 1959 3584 
z
" transform="scale(0.015625)"/>
        <path id="DejaVuSans-6c" d="M 603 4863 
L 1178 4863 
L 1178 0 
L 603 0 
L 603 4863 
z
" transform="scale(0.015625)"/>
        <path id="DejaVuSans-64" d="M 2906 2969 
L 2906 4863 
L 3481 4863 
L 3481 0 
L 2906 0 
L 2906 525 
Q 2725 213 2448 61 
Q 2172 -91 1784 -91 
Q 1150 -91 751 415 
Q 353 922 353 1747 
Q 353 2572 751 3078 
Q 1150 3584 1784 3584 
Q 2172 3584 2448 3432 
Q 2725 3281 2906 2969 
z
M 947 1747 
Q 947 1113 1208 752 
Q 1469 391 1925 391 
Q 2381 391 2643 752 
Q 2906 1113 2906 1747 
Q 2906 2381 2643 2742 
Q 2381 3103 1925 3103 
Q 1469 3103 1208 2742 
Q 947 2381 947 1747 
z
" transform="scale(0.015625)"/>
        <path id="DejaVuSans-5f" d="M 3263 -1063 
L 3263 -1509 
L -63 -1509 
L -63 -1063 
L 3263 -1063 
z
" transform="scale(0.015625)"/>
        <path id="DejaVuSans-72" d="M 2631 2963 
Q 2534 3019 2420 3045 
Q 2306 3072 2169 3072 
Q 1681 3072 1420 2755 
Q 1159 2438 1159 1844 
L 1159 0 
L 581 0 
L 581 3500 
L 1159 3500 
L 1159 2956 
Q 1341 3275 1631 3429 
Q 1922 3584 2338 3584 
Q 2397 3584 2469 3576 
Q 2541 3569 2628 3553 
L 2631 2963 
z
" transform="scale(0.015625)"/>
        <path id="DejaVuSans-69" d="M 603 3500 
L 1178 3500 
L 1178 0 
L 603 0 
L 603 3500 
z
M 603 4863 
L 1178 4863 
L 1178 4134 
L 603 4134 
L 603 4863 
z
" transform="scale(0.015625)"/>
        <path id="DejaVuSans-67" d="M 2906 1791 
Q 2906 2416 2648 2759 
Q 2391 3103 1925 3103 
Q 1463 3103 1205 2759 
Q 947 2416 947 1791 
Q 947 1169 1205 825 
Q 1463 481 1925 481 
Q 2391 481 2648 825 
Q 2906 1169 2906 1791 
z
M 3481 434 
Q 3481 -459 3084 -895 
Q 2688 -1331 1869 -1331 
Q 1566 -1331 1297 -1286 
Q 1028 -1241 775 -1147 
L 775 -588 
Q 1028 -725 1275 -790 
Q 1522 -856 1778 -856 
Q 2344 -856 2625 -561 
Q 2906 -266 2906 331 
L 2906 616 
Q 2728 306 2450 153 
Q 2172 0 1784 0 
Q 1141 0 747 490 
Q 353 981 353 1791 
Q 353 2603 747 3093 
Q 1141 3584 1784 3584 
Q 2172 3584 2450 3431 
Q 2728 3278 2906 2969 
L 2906 3500 
L 3481 3500 
L 3481 434 
z
" transform="scale(0.015625)"/>
        <path id="DejaVuSans-75" d="M 544 1381 
L 544 3500 
L 1119 3500 
L 1119 1403 
Q 1119 906 1312 657 
Q 1506 409 1894 409 
Q 2359 409 2629 706 
Q 2900 1003 2900 1516 
L 2900 3500 
L 3475 3500 
L 3475 0 
L 2900 0 
L 2900 538 
Q 2691 219 2414 64 
Q 2138 -91 1772 -91 
Q 1169 -91 856 284 
Q 544 659 544 1381 
z
M 1991 3584 
L 1991 3584 
z
" transform="scale(0.015625)"/>
        <path id="DejaVuSans-73" d="M 2834 3397 
L 2834 2853 
Q 2591 2978 2328 3040 
Q 2066 3103 1784 3103 
Q 1356 3103 1142 2972 
Q 928 2841 928 2578 
Q 928 2378 1081 2264 
Q 1234 2150 1697 2047 
L 1894 2003 
Q 2506 1872 2764 1633 
Q 3022 1394 3022 966 
Q 3022 478 2636 193 
Q 2250 -91 1575 -91 
Q 1294 -91 989 -36 
Q 684 19 347 128 
L 347 722 
Q 666 556 975 473 
Q 1284 391 1588 391 
Q 1994 391 2212 530 
Q 2431 669 2431 922 
Q 2431 1156 2273 1281 
Q 2116 1406 1581 1522 
L 1381 1569 
Q 847 1681 609 1914 
Q 372 2147 372 2553 
Q 372 3047 722 3315 
Q 1072 3584 1716 3584 
Q 2034 3584 2315 3537 
Q 2597 3491 2834 3397 
z
" transform="scale(0.015625)"/>
        <path id="DejaVuSans-65" d="M 3597 1894 
L 3597 1613 
L 953 1613 
Q 991 1019 1311 708 
Q 1631 397 2203 397 
Q 2534 397 2845 478 
Q 3156 559 3463 722 
L 3463 178 
Q 3153 47 2828 -22 
Q 2503 -91 2169 -91 
Q 1331 -91 842 396 
Q 353 884 353 1716 
Q 353 2575 817 3079 
Q 1281 3584 2069 3584 
Q 2775 3584 3186 3129 
Q 3597 2675 3597 1894 
z
M 3022 2063 
Q 3016 2534 2758 2815 
Q 2500 3097 2075 3097 
Q 1594 3097 1305 2825 
Q 1016 2553 972 2059 
L 3022 2063 
z
" transform="scale(0.015625)"/>
        <path id="DejaVuSans-61" d="M 2194 1759 
Q 1497 1759 1228 1600 
Q 959 1441 959 1056 
Q 959 750 1161 570 
Q 1363 391 1709 391 
Q 2188 391 2477 730 
Q 2766 1069 2766 1631 
L 2766 1759 
L 2194 1759 
z
M 3341 1997 
L 3341 0 
L 2766 0 
L 2766 531 
Q 2569 213 2275 61 
Q 1981 -91 1556 -91 
Q 1019 -91 701 211 
Q 384 513 384 1019 
Q 384 1609 779 1909 
Q 1175 2209 1959 2209 
L 2766 2209 
L 2766 2266 
Q 2766 2663 2505 2880 
Q 2244 3097 1772 3097 
Q 1472 3097 1187 3025 
Q 903 2953 641 2809 
L 641 3341 
Q 956 3463 1253 3523 
Q 1550 3584 1831 3584 
Q 2591 3584 2966 3190 
Q 3341 2797 3341 1997 
z
" transform="scale(0.015625)"/>
        <path id="DejaVuSans-63" d="M 3122 3366 
L 3122 2828 
Q 2878 2963 2633 3030 
Q 2388 3097 2138 3097 
Q 1578 3097 1268 2742 
Q 959 2388 959 1747 
Q 959 1106 1268 751 
Q 1578 397 2138 397 
Q 2388 397 2633 464 
Q 2878 531 3122 666 
L 3122 134 
Q 2881 22 2623 -34 
Q 2366 -91 2075 -91 
Q 1284 -91 818 406 
Q 353 903 353 1747 
Q 353 2603 823 3093 
Q 1294 3584 2113 3584 
Q 2378 3584 2631 3529 
Q 2884 3475 3122 3366 
z
" transform="scale(0.015625)"/>
        <path id="DejaVuSans-68" d="M 3513 2113 
L 3513 0 
L 2938 0 
L 2938 2094 
Q 2938 2591 2744 2837 
Q 2550 3084 2163 3084 
Q 1697 3084 1428 2787 
Q 1159 2491 1159 1978 
L 1159 0 
L 581 0 
L 581 4863 
L 1159 4863 
L 1159 2956 
Q 1366 3272 1645 3428 
Q 1925 3584 2291 3584 
Q 2894 3584 3203 3211 
Q 3513 2838 3513 2113 
z
" transform="scale(0.015625)"/>
        <path id="DejaVuSans-70" d="M 1159 525 
L 1159 -1331 
L 581 -1331 
L 581 3500 
L 1159 3500 
L 1159 2969 
Q 1341 3281 1617 3432 
Q 1894 3584 2278 3584 
Q 2916 3584 3314 3078 
Q 3713 2572 3713 1747 
Q 3713 922 3314 415 
Q 2916 -91 2278 -91 
Q 1894 -91 1617 61 
Q 1341 213 1159 525 
z
M 3116 1747 
Q 3116 2381 2855 2742 
Q 2594 3103 2138 3103 
Q 1681 3103 1420 2742 
Q 1159 2381 1159 1747 
Q 1159 1113 1420 752 
Q 1681 391 2138 391 
Q 2594 391 2855 752 
Q 3116 1113 3116 1747 
z
" transform="scale(0.015625)"/>
       </defs>
       <use xlink:href="#DejaVuSans-62"/>
       <use xlink:href="#DejaVuSans-6f" transform="translate(63.476562 0)"/>
       <use xlink:href="#DejaVuSans-6c" transform="translate(124.658203 0)"/>
       <use xlink:href="#DejaVuSans-64" transform="translate(152.441406 0)"/>
       <use xlink:href="#DejaVuSans-5f" transform="translate(215.917969 0)"/>
       <use xlink:href="#DejaVuSans-72" transform="translate(265.917969 0)"/>
       <use xlink:href="#DejaVuSans-69" transform="translate(307.03125 0)"/>
       <use xlink:href="#DejaVuSans-67" transform="translate(334.814453 0)"/>
       <use xlink:href="#DejaVuSans-6f" transform="translate(398.291016 0)"/>
       <use xlink:href="#DejaVuSans-72" transform="translate(459.472656 0)"/>
       <use xlink:href="#DejaVuSans-6f" transform="translate(498.335938 0)"/>
       <use xlink:href="#DejaVuSans-75" transform="translate(559.517578 0)"/>
       <use xlink:href="#DejaVuSans-73" transform="translate(622.896484 0)"/>
       <use xlink:href="#DejaVuSans-5f" transform="translate(674.996094 0)"/>
       <use xlink:href="#DejaVuSans-72" transform="translate(724.996094 0)"/>
       <use xlink:href="#DejaVuSans-65" transform="translate(763.859375 0)"/>
       <use xlink:href="#DejaVuSans-73" transform="translate(825.382812 0)"/>
       <use xlink:href="#DejaVuSans-65" transform="translate(877.482422 0)"/>
       <use xlink:href="#DejaVuSans-61" transform="translate(939.005859 0)"/>
       <use xlink:href="#DejaVuSans-72" transform="translate(1000.285156 0)"/>
       <use xlink:href="#DejaVuSans-63" transform="translate(1039.148438 0)"/>
       <use xlink:href="#DejaVuSans-68" transform="translate(1094.128906 0)"/>
       <use xlink:href="#DejaVuSans-5f" transform="translate(1157.507812 0)"/>
       <use xlink:href="#DejaVuSans-61" transform="translate(1207.507812 0)"/>
       <use xlink:href="#DejaVuSans-70" transform="translate(1268.787109 0)"/>
       <use xlink:href="#DejaVuSans-70" transform="translate(1332.263672 0)"/>
       <use xlink:href="#DejaVuSans-72" transform="translate(1395.740234 0)"/>
       <use xlink:href="#DejaVuSans-6f" transform="translate(1434.603516 0)"/>
       <use xlink:href="#DejaVuSans-61" transform="translate(1495.785156 0)"/>
       <use xlink:href="#DejaVuSans-63" transform="translate(1557.064453 0)"/>
       <use xlink:href="#DejaVuSans-68" transform="translate(1612.044922 0)"/>
       <use xlink:href="#DejaVuSans-65" transform="translate(1675.423828 0)"/>
       <use xlink:href="#DejaVuSans-73" transform="translate(1736.947266 0)"/>
       <use xlink:href="#DejaVuSans-5f" transform="translate(1789.046875 0)"/>
       <use xlink:href="#DejaVuSans-72" transform="translate(1839.046875 0)"/>
       <use xlink:href="#DejaVuSans-75" transform="translate(1880.160156 0)"/>
       <use xlink:href="#DejaVuSans-62" transform="translate(1943.539062 0)"/>
       <use xlink:href="#DejaVuSans-72" transform="translate(2007.015625 0)"/>
       <use xlink:href="#DejaVuSans-69" transform="translate(2048.128906 0)"/>
       <use xlink:href="#DejaVuSans-63" transform="translate(2075.912109 0)"/>
      </g>
     </g>
    </g>
    <g id="xtick_2">
     <g id="line2d_2">
      <path d="M 274.527969 234.425937 
L 452.137969 234.425937 
" clip-path="url(#p1cbd657acd)" style="fill: none; stroke: #b0b0b0; stroke-width: 0.8; stroke-linecap: square"/>
     </g>
     <g id="text_2">
      <!-- boundary_crossing_partnerships_rubric -->
      <g transform="translate(368.0325 237.04625) scale(0.1 -0.1)">
       <defs>
        <path id="DejaVuSans-6e" d="M 3513 2113 
L 3513 0 
L 2938 0 
L 2938 2094 
Q 2938 2591 2744 2837 
Q 2550 3084 2163 3084 
Q 1697 3084 1428 2787 
Q 1159 2491 1159 1978 
L 1159 0 
L 581 0 
L 581 3500 
L 1159 3500 
L 1159 2956 
Q 1366 3272 1645 3428 
Q 1925 3584 2291 3584 
Q 2894 3584 3203 3211 
Q 3513 2838 3513 2113 
z
" transform="scale(0.015625)"/>
        <path id="DejaVuSans-79" d="M 2059 -325 
Q 1816 -950 1584 -1140 
Q 1353 -1331 966 -1331 
L 506 -1331 
L 506 -850 
L 844 -850 
Q 1081 -850 1212 -737 
Q 1344 -625 1503 -206 
L 1606 56 
L 191 3500 
L 800 3500 
L 1894 763 
L 2988 3500 
L 3597 3500 
L 2059 -325 
z
" transform="scale(0.015625)"/>
        <path id="DejaVuSans-74" d="M 1172 4494 
L 1172 3500 
L 2356 3500 
L 2356 3053 
L 1172 3053 
L 1172 1153 
Q 1172 725 1289 603 
Q 1406 481 1766 481 
L 2356 481 
L 2356 0 
L 1766 0 
Q 1100 0 847 248 
Q 594 497 594 1153 
L 594 3053 
L 172 3053 
L 172 3500 
L 594 3500 
L 594 4494 
L 1172 4494 
z
" transform="scale(0.015625)"/>
       </defs>
       <use xlink:href="#DejaVuSans-62"/>
       <use xlink:href="#DejaVuSans-6f" transform="translate(63.476562 0)"/>
       <use xlink:href="#DejaVuSans-75" transform="translate(124.658203 0)"/>
       <use xlink:href="#DejaVuSans-6e" transform="translate(188.037109 0)"/>
       <use xlink:href="#DejaVuSans-64" transform="translate(251.416016 0)"/>
       <use xlink:href="#DejaVuSans-61" transform="translate(314.892578 0)"/>
       <use xlink:href="#DejaVuSans-72" transform="translate(376.171875 0)"/>
       <use xlink:href="#DejaVuSans-79" transform="translate(417.285156 0)"/>
       <use xlink:href="#DejaVuSans-5f" transform="translate(476.464844 0)"/>
       <use xlink:href="#DejaVuSans-63" transform="translate(526.464844 0)"/>
       <use xlink:href="#DejaVuSans-72" transform="translate(581.445312 0)"/>
       <use xlink:href="#DejaVuSans-6f" transform="translate(620.308594 0)"/>
       <use xlink:href="#DejaVuSans-73" transform="translate(681.490234 0)"/>
       <use xlink:href="#DejaVuSans-73" transform="translate(733.589844 0)"/>
       <use xlink:href="#DejaVuSans-69" transform="translate(785.689453 0)"/>
       <use xlink:href="#DejaVuSans-6e" transform="translate(813.472656 0)"/>
       <use xlink:href="#DejaVuSans-67" transform="translate(876.851562 0)"/>
       <use xlink:href="#DejaVuSans-5f" transform="translate(940.328125 0)"/>
       <use xlink:href="#DejaVuSans-70" transform="translate(990.328125 0)"/>
       <use xlink:href="#DejaVuSans-61" transform="translate(1053.804688 0)"/>
       <use xlink:href="#DejaVuSans-72" transform="translate(1115.083984 0)"/>
       <use xlink:href="#DejaVuSans-74" transform="translate(1156.197266 0)"/>
       <use xlink:href="#DejaVuSans-6e" transform="translate(1195.40625 0)"/>
       <use xlink:href="#DejaVuSans-65" transform="translate(1258.785156 0)"/>
       <use xlink:href="#DejaVuSans-72" transform="translate(1320.308594 0)"/>
       <use xlink:href="#DejaVuSans-73" transform="translate(1361.421875 0)"/>
       <use xlink:href="#DejaVuSans-68" transform="translate(1413.521484 0)"/>
       <use xlink:href="#DejaVuSans-69" transform="translate(1476.900391 0)"/>
       <use xlink:href="#DejaVuSans-70" transform="translate(1504.683594 0)"/>
       <use xlink:href="#DejaVuSans-73" transform="translate(1568.160156 0)"/>
       <use xlink:href="#DejaVuSans-5f" transform="translate(1620.259766 0)"/>
       <use xlink:href="#DejaVuSans-72" transform="translate(1670.259766 0)"/>
       <use xlink:href="#DejaVuSans-75" transform="translate(1711.373047 0)"/>
       <use xlink:href="#DejaVuSans-62" transform="translate(1774.751953 0)"/>
       <use xlink:href="#DejaVuSans-72" transform="translate(1838.228516 0)"/>
       <use xlink:href="#DejaVuSans-69" transform="translate(1879.341797 0)"/>
       <use xlink:href="#DejaVuSans-63" transform="translate(1907.125 0)"/>
      </g>
     </g>
    </g>
    <g id="xtick_3">
     <g id="line2d_3">
      <path d="M 274.527969 234.425937 
L 274.527969 412.035937 
" clip-path="url(#p1cbd657acd)" style="fill: none; stroke: #b0b0b0; stroke-width: 0.8; stroke-linecap: square"/>
     </g>
     <g id="text_3">
      <!-- cross_disciplinary_team_science_rubric -->
      <g transform="translate(176.683437 428.65625) scale(0.1 -0.1)">
       <defs>
        <path id="DejaVuSans-6d" d="M 3328 2828 
Q 3544 3216 3844 3400 
Q 4144 3584 4550 3584 
Q 5097 3584 5394 3201 
Q 5691 2819 5691 2113 
L 5691 0 
L 5113 0 
L 5113 2094 
Q 5113 2597 4934 2840 
Q 4756 3084 4391 3084 
Q 3944 3084 3684 2787 
Q 3425 2491 3425 1978 
L 3425 0 
L 2847 0 
L 2847 2094 
Q 2847 2600 2669 2842 
Q 2491 3084 2119 3084 
Q 1678 3084 1418 2786 
Q 1159 2488 1159 1978 
L 1159 0 
L 581 0 
L 581 3500 
L 1159 3500 
L 1159 2956 
Q 1356 3278 1631 3431 
Q 1906 3584 2284 3584 
Q 2666 3584 2933 3390 
Q 3200 3197 3328 2828 
z
" transform="scale(0.015625)"/>
       </defs>
       <use xlink:href="#DejaVuSans-63"/>
       <use xlink:href="#DejaVuSans-72" transform="translate(54.980469 0)"/>
       <use xlink:href="#DejaVuSans-6f" transform="translate(93.84375 0)"/>
       <use xlink:href="#DejaVuSans-73" transform="translate(155.025391 0)"/>
       <use xlink:href="#DejaVuSans-73" transform="translate(207.125 0)"/>
       <use xlink:href="#DejaVuSans-5f" transform="translate(259.224609 0)"/>
       <use xlink:href="#DejaVuSans-64" transform="translate(309.224609 0)"/>
       <use xlink:href="#DejaVuSans-69" transform="translate(372.701172 0)"/>
       <use xlink:href="#DejaVuSans-73" transform="translate(400.484375 0)"/>
       <use xlink:href="#DejaVuSans-63" transform="translate(452.583984 0)"/>
       <use xlink:href="#DejaVuSans-69" transform="translate(507.564453 0)"/>
       <use xlink:href="#DejaVuSans-70" transform="translate(535.347656 0)"/>
       <use xlink:href="#DejaVuSans-6c" transform="translate(598.824219 0)"/>
       <use xlink:href="#DejaVuSans-69" transform="translate(626.607422 0)"/>
       <use xlink:href="#DejaVuSans-6e" transform="translate(654.390625 0)"/>
       <use xlink:href="#DejaVuSans-61" transform="translate(717.769531 0)"/>
       <use xlink:href="#DejaVuSans-72" transform="translate(779.048828 0)"/>
       <use xlink:href="#DejaVuSans-79" transform="translate(820.162109 0)"/>
       <use xlink:href="#DejaVuSans-5f" transform="translate(879.341797 0)"/>
       <use xlink:href="#DejaVuSans-74" transform="translate(929.341797 0)"/>
       <use xlink:href="#DejaVuSans-65" transform="translate(968.550781 0)"/>
       <use xlink:href="#DejaVuSans-61" transform="translate(1030.074219 0)"/>
       <use xlink:href="#DejaVuSans-6d" transform="translate(1091.353516 0)"/>
       <use xlink:href="#DejaVuSans-5f" transform="translate(1188.765625 0)"/>
       <use xlink:href="#DejaVuSans-73" transform="translate(1238.765625 0)"/>
       <use xlink:href="#DejaVuSans-63" transform="translate(1290.865234 0)"/>
       <use xlink:href="#DejaVuSans-69" transform="translate(1345.845703 0)"/>
       <use xlink:href="#DejaVuSans-65" transform="translate(1373.628906 0)"/>
       <use xlink:href="#DejaVuSans-6e" transform="translate(1435.152344 0)"/>
       <use xlink:href="#DejaVuSans-63" transform="translate(1498.53125 0)"/>
       <use xlink:href="#DejaVuSans-65" transform="translate(1553.511719 0)"/>
       <use xlink:href="#DejaVuSans-5f" transform="translate(1615.035156 0)"/>
       <use xlink:href="#DejaVuSans-72" transform="translate(1665.035156 0)"/>
       <use xlink:href="#DejaVuSans-75" transform="translate(1706.148438 0)"/>
       <use xlink:href="#DejaVuSans-62" transform="translate(1769.527344 0)"/>
       <use xlink:href="#DejaVuSans-72" transform="translate(1833.003906 0)"/>
       <use xlink:href="#DejaVuSans-69" transform="translate(1874.117188 0)"/>
       <use xlink:href="#DejaVuSans-63" transform="translate(1901.900391 0)"/>
      </g>
     </g>
    </g>
    <g id="xtick_4">
     <g id="line2d_4">
      <path d="M 274.527969 234.425937 
L 96.917969 234.425937 
" clip-path="url(#p1cbd657acd)" style="fill: none; stroke: #b0b0b0; stroke-width: 0.8; stroke-linecap: square"/>
     </g>
     <g id="text_4">
      <!-- generalizable_solutions_rubric -->
      <g transform="translate(7.2 237.04625) scale(0.1 -0.1)">
       <defs>
        <path id="DejaVuSans-7a" d="M 353 3500 
L 3084 3500 
L 3084 2975 
L 922 459 
L 3084 459 
L 3084 0 
L 275 0 
L 275 525 
L 2438 3041 
L 353 3041 
L 353 3500 
z
" transform="scale(0.015625)"/>
       </defs>
       <use xlink:href="#DejaVuSans-67"/>
       <use xlink:href="#DejaVuSans-65" transform="translate(63.476562 0)"/>
       <use xlink:href="#DejaVuSans-6e" transform="translate(125 0)"/>
       <use xlink:href="#DejaVuSans-65" transform="translate(188.378906 0)"/>
       <use xlink:href="#DejaVuSans-72" transform="translate(249.902344 0)"/>
       <use xlink:href="#DejaVuSans-61" transform="translate(291.015625 0)"/>
       <use xlink:href="#DejaVuSans-6c" transform="translate(352.294922 0)"/>
       <use xlink:href="#DejaVuSans-69" transform="translate(380.078125 0)"/>
       <use xlink:href="#DejaVuSans-7a" transform="translate(407.861328 0)"/>
       <use xlink:href="#DejaVuSans-61" transform="translate(460.351562 0)"/>
       <use xlink:href="#DejaVuSans-62" transform="translate(521.630859 0)"/>
       <use xlink:href="#DejaVuSans-6c" transform="translate(585.107422 0)"/>
       <use xlink:href="#DejaVuSans-65" transform="translate(612.890625 0)"/>
       <use xlink:href="#DejaVuSans-5f" transform="translate(674.414062 0)"/>
       <use xlink:href="#DejaVuSans-73" transform="translate(724.414062 0)"/>
       <use xlink:href="#DejaVuSans-6f" transform="translate(776.513672 0)"/>
       <use xlink:href="#DejaVuSans-6c" transform="translate(837.695312 0)"/>
       <use xlink:href="#DejaVuSans-75" transform="translate(865.478516 0)"/>
       <use xlink:href="#DejaVuSans-74" transform="translate(928.857422 0)"/>
       <use xlink:href="#DejaVuSans-69" transform="translate(968.066406 0)"/>
       <use xlink:href="#DejaVuSans-6f" transform="translate(995.849609 0)"/>
       <use xlink:href="#DejaVuSans-6e" transform="translate(1057.03125 0)"/>
       <use xlink:href="#DejaVuSans-73" transform="translate(1120.410156 0)"/>
       <use xlink:href="#DejaVuSans-5f" transform="translate(1172.509766 0)"/>
       <use xlink:href="#DejaVuSans-72" transform="translate(1222.509766 0)"/>
       <use xlink:href="#DejaVuSans-75" transform="translate(1263.623047 0)"/>
       <use xlink:href="#DejaVuSans-62" transform="translate(1327.001953 0)"/>
       <use xlink:href="#DejaVuSans-72" transform="translate(1390.478516 0)"/>
       <use xlink:href="#DejaVuSans-69" transform="translate(1431.591797 0)"/>
       <use xlink:href="#DejaVuSans-63" transform="translate(1459.375 0)"/>
      </g>
     </g>
    </g>
   </g>
   <g id="matplotlib.axis_2">
    <g id="ytick_1">
     <g id="line2d_5">
      <path d="M 274.527969 204.824271 
C 278.415224 204.824271 282.264681 205.589975 285.856036 207.077564 
C 289.447392 208.565152 292.710803 210.745694 295.459508 213.494398 
C 298.208213 216.243103 300.388755 219.506515 301.876343 223.09787 
C 303.363931 226.689226 304.129635 230.538682 304.129635 234.425937 
C 304.129635 238.313193 303.363931 242.162649 301.876343 245.754005 
C 300.388755 249.34536 298.208213 252.608772 295.459508 255.357477 
C 292.710803 258.106181 289.447392 260.286723 285.856036 261.774311 
C 282.264681 263.2619 278.415224 264.027604 274.527969 264.027604 
C 270.640713 264.027604 266.791257 263.2619 263.199901 261.774311 
C 259.608546 260.286723 256.345134 258.106181 253.59643 255.357477 
C 250.847725 252.608772 248.667183 249.34536 247.179595 245.754005 
C 245.692007 242.162649 244.926302 238.313193 244.926302 234.425937 
C 244.926302 230.538682 245.692007 226.689226 247.179595 223.09787 
C 248.667183 219.506515 250.847725 216.243103 253.59643 213.494398 
C 256.345134 210.745694 259.608546 208.565152 263.199901 207.077564 
C 266.791257 205.589975 270.640713 204.824271 274.527969 204.824271 
" clip-path="url(#p1cbd657acd)" style="fill: none; stroke: #b0b0b0; stroke-width: 0.8; stroke-linecap: square"/>
     </g>
     <g id="text_5">
      <!-- 1 -->
      <g transform="translate(274.527969 202.744583) scale(0.1 -0.1)">
       <defs>
        <path id="DejaVuSans-31" d="M 794 531 
L 1825 531 
L 1825 4091 
L 703 3866 
L 703 4441 
L 1819 4666 
L 2450 4666 
L 2450 531 
L 3481 531 
L 3481 0 
L 794 0 
L 794 531 
z
" transform="scale(0.015625)"/>
       </defs>
       <use xlink:href="#DejaVuSans-31"/>
      </g>
     </g>
    </g>
    <g id="ytick_2">
     <g id="line2d_6">
      <path d="M 274.527969 175.222604 
C 282.302479 175.222604 290.001392 176.754013 297.184104 179.72919 
C 304.366815 182.704366 310.893638 187.06545 316.391047 192.562859 
C 321.888456 198.060268 326.24954 204.587092 329.224717 211.769803 
C 332.199893 218.952514 333.731302 226.651427 333.731302 234.425937 
C 333.731302 242.200448 332.199893 249.899361 329.224717 257.082072 
C 326.24954 264.264783 321.888456 270.791607 316.391047 276.289016 
C 310.893638 281.786425 304.366815 286.147509 297.184104 289.122685 
C 290.001392 292.097862 282.302479 293.629271 274.527969 293.629271 
C 266.753458 293.629271 259.054545 292.097862 251.871834 289.122685 
C 244.689123 286.147509 238.162299 281.786425 232.66489 276.289016 
C 227.167481 270.791607 222.806397 264.264783 219.831221 257.082072 
C 216.856044 249.899361 215.324635 242.200448 215.324635 234.425937 
C 215.324635 226.651427 216.856044 218.952514 219.831221 211.769803 
C 222.806397 204.587092 227.167481 198.060268 232.66489 192.562859 
C 238.162299 187.06545 244.689123 182.704366 251.871834 179.72919 
C 259.054545 176.754013 266.753458 175.222604 274.527969 175.222604 
" clip-path="url(#p1cbd657acd)" style="fill: none; stroke: #b0b0b0; stroke-width: 0.8; stroke-linecap: square"/>
     </g>
     <g id="text_6">
      <!-- 2 -->
      <g transform="translate(274.527969 173.142917) scale(0.1 -0.1)">
       <defs>
        <path id="DejaVuSans-32" d="M 1228 531 
L 3431 531 
L 3431 0 
L 469 0 
L 469 531 
Q 828 903 1448 1529 
Q 2069 2156 2228 2338 
Q 2531 2678 2651 2914 
Q 2772 3150 2772 3378 
Q 2772 3750 2511 3984 
Q 2250 4219 1831 4219 
Q 1534 4219 1204 4116 
Q 875 4013 500 3803 
L 500 4441 
Q 881 4594 1212 4672 
Q 1544 4750 1819 4750 
Q 2544 4750 2975 4387 
Q 3406 4025 3406 3419 
Q 3406 3131 3298 2873 
Q 3191 2616 2906 2266 
Q 2828 2175 2409 1742 
Q 1991 1309 1228 531 
z
" transform="scale(0.015625)"/>
       </defs>
       <use xlink:href="#DejaVuSans-32"/>
      </g>
     </g>
    </g>
    <g id="ytick_3">
     <g id="line2d_7">
      <path d="M 274.527969 145.620937 
C 286.189735 145.620937 297.738104 147.918051 308.512171 152.380816 
C 319.286238 156.84358 329.076473 163.385206 337.322586 171.63132 
C 345.5687 179.877433 352.110326 189.667669 356.573091 200.441735 
C 361.035855 211.215802 363.332969 222.764172 363.332969 234.425937 
C 363.332969 246.087703 361.035855 257.636073 356.573091 268.41014 
C 352.110326 279.184206 345.5687 288.974442 337.322586 297.220555 
C 329.076473 305.466669 319.286238 312.008295 308.512171 316.471059 
C 297.738104 320.933824 286.189735 323.230937 274.527969 323.230937 
C 262.866203 323.230937 251.317833 320.933824 240.543767 316.471059 
C 229.7697 312.008295 219.979465 305.466669 211.733351 297.220555 
C 203.487237 288.974442 196.945611 279.184206 192.482847 268.41014 
C 188.020082 257.636073 185.722969 246.087703 185.722969 234.425937 
C 185.722969 222.764172 188.020082 211.215802 192.482847 200.441735 
C 196.945611 189.667669 203.487237 179.877433 211.733351 171.63132 
C 219.979465 163.385206 229.7697 156.84358 240.543767 152.380816 
C 251.317833 147.918051 262.866203 145.620937 274.527969 145.620937 
" clip-path="url(#p1cbd657acd)" style="fill: none; stroke: #b0b0b0; stroke-width: 0.8; stroke-linecap: square"/>
     </g>
     <g id="text_7">
      <!-- 3 -->
      <g transform="translate(274.527969 143.54125) scale(0.1 -0.1)">
       <defs>
        <path id="DejaVuSans-33" d="M 2597 2516 
Q 3050 2419 3304 2112 
Q 3559 1806 3559 1356 
Q 3559 666 3084 287 
Q 2609 -91 1734 -91 
Q 1441 -91 1130 -33 
Q 819 25 488 141 
L 488 750 
Q 750 597 1062 519 
Q 1375 441 1716 441 
Q 2309 441 2620 675 
Q 2931 909 2931 1356 
Q 2931 1769 2642 2001 
Q 2353 2234 1838 2234 
L 1294 2234 
L 1294 2753 
L 1863 2753 
Q 2328 2753 2575 2939 
Q 2822 3125 2822 3475 
Q 2822 3834 2567 4026 
Q 2313 4219 1838 4219 
Q 1578 4219 1281 4162 
Q 984 4106 628 3988 
L 628 4550 
Q 988 4650 1302 4700 
Q 1616 4750 1894 4750 
Q 2613 4750 3031 4423 
Q 3450 4097 3450 3541 
Q 3450 3153 3228 2886 
Q 3006 2619 2597 2516 
z
" transform="scale(0.015625)"/>
       </defs>
       <use xlink:href="#DejaVuSans-33"/>
      </g>
     </g>
    </g>
    <g id="ytick_4">
     <g id="line2d_8">
      <path d="M 274.527969 116.019271 
C 290.07699 116.019271 305.474816 119.082089 319.840238 125.032442 
C 334.205661 130.982794 347.259307 139.704962 358.254126 150.699781 
C 369.248944 161.694599 377.971112 174.748246 383.921465 189.113668 
C 389.871817 203.47909 392.934635 218.876916 392.934635 234.425937 
C 392.934635 249.974959 389.871817 265.372785 383.921465 279.738207 
C 377.971112 294.103629 369.248944 307.157276 358.254126 318.152094 
C 347.259307 329.146913 334.205661 337.869081 319.840238 343.819433 
C 305.474816 349.769786 290.07699 352.832604 274.527969 352.832604 
C 258.978948 352.832604 243.581121 349.769786 229.215699 343.819433 
C 214.850277 337.869081 201.79663 329.146913 190.801812 318.152094 
C 179.806994 307.157276 171.084826 294.103629 165.134473 279.738207 
C 159.18412 265.372785 156.121302 249.974959 156.121302 234.425937 
C 156.121302 218.876916 159.18412 203.47909 165.134473 189.113668 
C 171.084826 174.748246 179.806994 161.694599 190.801812 150.699781 
C 201.79663 139.704962 214.850277 130.982794 229.215699 125.032442 
C 243.581121 119.082089 258.978948 116.019271 274.527969 116.019271 
" clip-path="url(#p1cbd657acd)" style="fill: none; stroke: #b0b0b0; stroke-width: 0.8; stroke-linecap: square"/>
     </g>
     <g id="text_8">
      <!-- 4 -->
      <g transform="translate(274.527969 113.939583) scale(0.1 -0.1)">
       <defs>
        <path id="DejaVuSans-34" d="M 2419 4116 
L 825 1625 
L 2419 1625 
L 2419 4116 
z
M 2253 4666 
L 3047 4666 
L 3047 1625 
L 3713 1625 
L 3713 1100 
L 3047 1100 
L 3047 0 
L 2419 0 
L 2419 1100 
L 313 1100 
L 313 1709 
L 2253 4666 
z
" transform="scale(0.015625)"/>
       </defs>
       <use xlink:href="#DejaVuSans-34"/>
      </g>
     </g>
    </g>
    <g id="ytick_5">
     <g id="line2d_9">
      <path d="M 274.527969 86.417604 
C 293.964245 86.417604 313.211528 90.246127 331.168306 97.684068 
C 349.125084 105.122009 365.442142 116.024719 379.185665 129.768241 
C 392.929188 143.511764 403.831898 159.828823 411.269839 177.7856 
C 418.707779 195.742378 422.536302 214.989661 422.536302 234.425937 
C 422.536302 253.862214 418.707779 273.109497 411.269839 291.066275 
C 403.831898 309.023052 392.929188 325.340111 379.185665 339.083634 
C 365.442142 352.827156 349.125084 363.729866 331.168306 371.167807 
C 313.211528 378.605748 293.964245 382.434271 274.527969 382.434271 
C 255.091692 382.434271 235.84441 378.605748 217.887632 371.167807 
C 199.930854 363.729866 183.613795 352.827156 169.870273 339.083634 
C 156.12675 325.340111 145.22404 309.023052 137.786099 291.066275 
C 130.348158 273.109497 126.519635 253.862214 126.519635 234.425937 
C 126.519635 214.989661 130.348158 195.742378 137.786099 177.7856 
C 145.22404 159.828823 156.12675 143.511764 169.870273 129.768241 
C 183.613795 116.024719 199.930854 105.122009 217.887632 97.684068 
C 235.84441 90.246127 255.091692 86.417604 274.527969 86.417604 
" clip-path="url(#p1cbd657acd)" style="fill: none; stroke: #b0b0b0; stroke-width: 0.8; stroke-linecap: square"/>
     </g>
     <g id="text_9">
      <!-- 5 -->
      <g transform="translate(274.527969 84.337917) scale(0.1 -0.1)">
       <defs>
        <path id="DejaVuSans-35" d="M 691 4666 
L 3169 4666 
L 3169 4134 
L 1269 4134 
L 1269 2991 
Q 1406 3038 1543 3061 
Q 1681 3084 1819 3084 
Q 2600 3084 3056 2656 
Q 3513 2228 3513 1497 
Q 3513 744 3044 326 
Q 2575 -91 1722 -91 
Q 1428 -91 1123 -41 
Q 819 9 494 109 
L 494 744 
Q 775 591 1075 516 
Q 1375 441 1709 441 
Q 2250 441 2565 725 
Q 2881 1009 2881 1497 
Q 2881 1984 2565 2268 
Q 2250 2553 1709 2553 
Q 1456 2553 1204 2497 
Q 953 2441 691 2322 
L 691 4666 
z
" transform="scale(0.015625)"/>
       </defs>
       <use xlink:href="#DejaVuSans-35"/>
      </g>
     </g>
    </g>
    <g id="ytick_6">
     <g id="line2d_10">
      <path d="M 274.527969 56.815937 
C 297.8515 56.815937 320.94824 61.410165 342.496373 70.335694 
C 364.044507 79.261223 383.624977 92.344475 400.117204 108.836702 
C 416.609431 125.328929 429.692683 144.9094 438.618213 166.457533 
C 447.543742 188.005666 452.137969 211.102406 452.137969 234.425937 
C 452.137969 257.749469 447.543742 280.846209 438.618213 302.394342 
C 429.692683 323.942475 416.609431 343.522946 400.117204 360.015173 
C 383.624977 376.5074 364.044507 389.590652 342.496373 398.516181 
C 320.94824 407.44171 297.8515 412.035937 274.527969 412.035937 
C 251.204437 412.035937 228.107698 407.44171 206.559564 398.516181 
C 185.011431 389.590652 165.430961 376.5074 148.938733 360.015173 
C 132.446506 343.522946 119.363254 323.942475 110.437725 302.394342 
C 101.512196 280.846209 96.917969 257.749469 96.917969 234.425937 
C 96.917969 211.102406 101.512196 188.005666 110.437725 166.457533 
C 119.363254 144.9094 132.446506 125.328929 148.938733 108.836702 
C 165.430961 92.344475 185.011431 79.261223 206.559564 70.335694 
C 228.107698 61.410165 251.204437 56.815937 274.527969 56.815937 
" clip-path="url(#p1cbd657acd)" style="fill: none; stroke: #b0b0b0; stroke-width: 0.8; stroke-linecap: square"/>
     </g>
     <g id="text_10">
      <!-- 6 -->
      <g transform="translate(274.527969 54.73625) scale(0.1 -0.1)">
       <defs>
        <path id="DejaVuSans-36" d="M 2113 2584 
Q 1688 2584 1439 2293 
Q 1191 2003 1191 1497 
Q 1191 994 1439 701 
Q 1688 409 2113 409 
Q 2538 409 2786 701 
Q 3034 994 3034 1497 
Q 3034 2003 2786 2293 
Q 2538 2584 2113 2584 
z
M 3366 4563 
L 3366 3988 
Q 3128 4100 2886 4159 
Q 2644 4219 2406 4219 
Q 1781 4219 1451 3797 
Q 1122 3375 1075 2522 
Q 1259 2794 1537 2939 
Q 1816 3084 2150 3084 
Q 2853 3084 3261 2657 
Q 3669 2231 3669 1497 
Q 3669 778 3244 343 
Q 2819 -91 2113 -91 
Q 1303 -91 875 529 
Q 447 1150 447 2328 
Q 447 3434 972 4092 
Q 1497 4750 2381 4750 
Q 2619 4750 2861 4703 
Q 3103 4656 3366 4563 
z
" transform="scale(0.015625)"/>
       </defs>
       <use xlink:href="#DejaVuSans-36"/>
      </g>
     </g>
    </g>
   </g>
   <g id="line2d_11">
    <path d="M 274.527969 145.620937 
L 274.527969 234.425937 
L 274.527969 264.027604 
L 274.527969 234.425937 
L 274.527969 145.620937 
" clip-path="url(#p1cbd657acd)" style="fill: none; stroke: #1f77b4; stroke-width: 2; stroke-linecap: square"/>
   </g>
   <g id="line2d_12">
    <path d="M 274.527969 56.815937 
L 274.527969 234.425937 
L 274.527969 264.027604 
L 244.926302 234.425937 
L 274.527969 56.815937 
" clip-path="url(#p1cbd657acd)" style="fill: none; stroke: #ff7f0e; stroke-width: 2; stroke-linecap: square"/>
   </g>
   <g id="line2d_13">
    <path d="M 274.527969 56.815937 
L 274.527969 234.425937 
L 274.527969 264.027604 
L 274.527969 234.425937 
L 274.527969 56.815937 
" clip-path="url(#p1cbd657acd)" style="fill: none; stroke: #2ca02c; stroke-width: 2; stroke-linecap: square"/>
   </g>
   <g id="patch_6">
    <path d="M 274.527969 56.815937 
C 251.204437 56.815937 228.107698 61.410165 206.559564 70.335694 
C 185.011431 79.261223 165.430961 92.344475 148.938733 108.836702 
C 132.446506 125.328929 119.363254 144.9094 110.437725 166.457533 
C 101.512196 188.005666 96.917969 211.102406 96.917969 234.425937 
C 96.917969 257.749469 101.512196 280.846209 110.437725 302.394342 
C 119.363254 323.942475 132.446506 343.522946 148.938733 360.015173 
C 165.430961 376.5074 185.011431 389.590652 206.559564 398.516181 
C 228.107698 407.44171 251.204437 412.035937 274.527969 412.035937 
C 297.8515 412.035937 320.94824 407.44171 342.496373 398.516181 
C 364.044507 389.590652 383.624977 376.5074 400.117204 360.015173 
C 416.609431 343.522946 429.692683 323.942475 438.618213 302.394342 
C 447.543742 280.846209 452.137969 257.749469 452.137969 234.425937 
C 452.137969 211.102406 447.543742 188.005666 438.618213 166.457533 
C 429.692683 144.9094 416.609431 125.328929 400.117204 108.836702 
C 383.624977 92.344475 364.044507 79.261223 342.496373 70.335694 
C 320.94824 61.410165 297.8515 56.815937 274.527969 56.815937 
" style="fill: none; stroke: #000000; stroke-width: 0.8; stroke-linejoin: miter; stroke-linecap: square"/>
   </g>
   <g id="text_11">
    <!-- Institutional Translational Principle Scores by Year -->
    <g transform="translate(100.868906 17.837812) scale(0.14 -0.14)">
     <defs>
      <path id="DejaVuSans-49" d="M 628 4666 
L 1259 4666 
L 1259 0 
L 628 0 
L 628 4666 
z
" transform="scale(0.015625)"/>
      <path id="DejaVuSans-20" transform="scale(0.015625)"/>
      <path id="DejaVuSans-54" d="M -19 4666 
L 3928 4666 
L 3928 4134 
L 2272 4134 
L 2272 0 
L 1638 0 
L 1638 4134 
L -19 4134 
L -19 4666 
z
" transform="scale(0.015625)"/>
      <path id="DejaVuSans-50" d="M 1259 4147 
L 1259 2394 
L 2053 2394 
Q 2494 2394 2734 2622 
Q 2975 2850 2975 3272 
Q 2975 3691 2734 3919 
Q 2494 4147 2053 4147 
L 1259 4147 
z
M 628 4666 
L 2053 4666 
Q 2838 4666 3239 4311 
Q 3641 3956 3641 3272 
Q 3641 2581 3239 2228 
Q 2838 1875 2053 1875 
L 1259 1875 
L 1259 0 
L 628 0 
L 628 4666 
z
" transform="scale(0.015625)"/>
      <path id="DejaVuSans-53" d="M 3425 4513 
L 3425 3897 
Q 3066 4069 2747 4153 
Q 2428 4238 2131 4238 
Q 1616 4238 1336 4038 
Q 1056 3838 1056 3469 
Q 1056 3159 1242 3001 
Q 1428 2844 1947 2747 
L 2328 2669 
Q 3034 2534 3370 2195 
Q 3706 1856 3706 1288 
Q 3706 609 3251 259 
Q 2797 -91 1919 -91 
Q 1588 -91 1214 -16 
Q 841 59 441 206 
L 441 856 
Q 825 641 1194 531 
Q 1563 422 1919 422 
Q 2459 422 2753 634 
Q 3047 847 3047 1241 
Q 3047 1584 2836 1778 
Q 2625 1972 2144 2069 
L 1759 2144 
Q 1053 2284 737 2584 
Q 422 2884 422 3419 
Q 422 4038 858 4394 
Q 1294 4750 2059 4750 
Q 2388 4750 2728 4690 
Q 3069 4631 3425 4513 
z
" transform="scale(0.015625)"/>
      <path id="DejaVuSans-59" d="M -13 4666 
L 666 4666 
L 1959 2747 
L 3244 4666 
L 3922 4666 
L 2272 2222 
L 2272 0 
L 1638 0 
L 1638 2222 
L -13 4666 
z
" transform="scale(0.015625)"/>
     </defs>
     <use xlink:href="#DejaVuSans-49"/>
     <use xlink:href="#DejaVuSans-6e" transform="translate(29.492188 0)"/>
     <use xlink:href="#DejaVuSans-73" transform="translate(92.871094 0)"/>
     <use xlink:href="#DejaVuSans-74" transform="translate(144.970703 0)"/>
     <use xlink:href="#DejaVuSans-69" transform="translate(184.179688 0)"/>
     <use xlink:href="#DejaVuSans-74" transform="translate(211.962891 0)"/>
     <use xlink:href="#DejaVuSans-75" transform="translate(251.171875 0)"/>
     <use xlink:href="#DejaVuSans-74" transform="translate(314.550781 0)"/>
     <use xlink:href="#DejaVuSans-69" transform="translate(353.759766 0)"/>
     <use xlink:href="#DejaVuSans-6f" transform="translate(381.542969 0)"/>
     <use xlink:href="#DejaVuSans-6e" transform="translate(442.724609 0)"/>
     <use xlink:href="#DejaVuSans-61" transform="translate(506.103516 0)"/>
     <use xlink:href="#DejaVuSans-6c" transform="translate(567.382812 0)"/>
     <use xlink:href="#DejaVuSans-20" transform="translate(595.166016 0)"/>
     <use xlink:href="#DejaVuSans-54" transform="translate(626.953125 0)"/>
     <use xlink:href="#DejaVuSans-72" transform="translate(673.287109 0)"/>
     <use xlink:href="#DejaVuSans-61" transform="translate(714.400391 0)"/>
     <use xlink:href="#DejaVuSans-6e" transform="translate(775.679688 0)"/>
     <use xlink:href="#DejaVuSans-73" transform="translate(839.058594 0)"/>
     <use xlink:href="#DejaVuSans-6c" transform="translate(891.158203 0)"/>
     <use xlink:href="#DejaVuSans-61" transform="translate(918.941406 0)"/>
     <use xlink:href="#DejaVuSans-74" transform="translate(980.220703 0)"/>
     <use xlink:href="#DejaVuSans-69" transform="translate(1019.429688 0)"/>
     <use xlink:href="#DejaVuSans-6f" transform="translate(1047.212891 0)"/>
     <use xlink:href="#DejaVuSans-6e" transform="translate(1108.394531 0)"/>
     <use xlink:href="#DejaVuSans-61" transform="translate(1171.773438 0)"/>
     <use xlink:href="#DejaVuSans-6c" transform="translate(1233.052734 0)"/>
     <use xlink:href="#DejaVuSans-20" transform="translate(1260.835938 0)"/>
     <use xlink:href="#DejaVuSans-50" transform="translate(1292.623047 0)"/>
     <use xlink:href="#DejaVuSans-72" transform="translate(1351.175781 0)"/>
     <use xlink:href="#DejaVuSans-69" transform="translate(1392.289062 0)"/>
     <use xlink:href="#DejaVuSans-6e" transform="translate(1420.072266 0)"/>
     <use xlink:href="#DejaVuSans-63" transform="translate(1483.451172 0)"/>
     <use xlink:href="#DejaVuSans-69" transform="translate(1538.431641 0)"/>
     <use xlink:href="#DejaVuSans-70" transform="translate(1566.214844 0)"/>
     <use xlink:href="#DejaVuSans-6c" transform="translate(1629.691406 0)"/>
     <use xlink:href="#DejaVuSans-65" transform="translate(1657.474609 0)"/>
     <use xlink:href="#DejaVuSans-20" transform="translate(1718.998047 0)"/>
     <use xlink:href="#DejaVuSans-53" transform="translate(1750.785156 0)"/>
     <use xlink:href="#DejaVuSans-63" transform="translate(1814.261719 0)"/>
     <use xlink:href="#DejaVuSans-6f" transform="translate(1869.242188 0)"/>
     <use xlink:href="#DejaVuSans-72" transform="translate(1930.423828 0)"/>
     <use xlink:href="#DejaVuSans-65" transform="translate(1969.287109 0)"/>
     <use xlink:href="#DejaVuSans-73" transform="translate(2030.810547 0)"/>
     <use xlink:href="#DejaVuSans-20" transform="translate(2082.910156 0)"/>
     <use xlink:href="#DejaVuSans-62" transform="translate(2114.697266 0)"/>
     <use xlink:href="#DejaVuSans-79" transform="translate(2178.173828 0)"/>
     <use xlink:href="#DejaVuSans-20" transform="translate(2237.353516 0)"/>
     <use xlink:href="#DejaVuSans-59" transform="translate(2269.140625 0)"/>
     <use xlink:href="#DejaVuSans-65" transform="translate(2316.974609 0)"/>
     <use xlink:href="#DejaVuSans-61" transform="translate(2378.498047 0)"/>
     <use xlink:href="#DejaVuSans-72" transform="translate(2439.777344 0)"/>
    </g>
   </g>
   <g id="legend_1">
    <g id="patch_7">
     <path d="M 458.731969 73.328312 
L 516.181969 73.328312 
Q 518.181969 73.328312 518.181969 71.328312 
L 518.181969 28.293937 
Q 518.181969 26.293937 516.181969 26.293937 
L 458.731969 26.293937 
Q 456.731969 26.293937 456.731969 28.293937 
L 456.731969 71.328312 
Q 456.731969 73.328312 458.731969 73.328312 
z
" style="fill: #ffffff; opacity: 0.8; stroke: #cccccc; stroke-linejoin: miter"/>
    </g>
    <g id="line2d_14">
     <path d="M 460.731969 34.392375 
L 470.731969 34.392375 
L 480.731969 34.392375 
" style="fill: none; stroke: #1f77b4; stroke-width: 2; stroke-linecap: square"/>
    </g>
    <g id="text_12">
     <!-- 2011 -->
     <g transform="translate(488.731969 37.892375) scale(0.1 -0.1)">
      <defs>
       <path id="DejaVuSans-30" d="M 2034 4250 
Q 1547 4250 1301 3770 
Q 1056 3291 1056 2328 
Q 1056 1369 1301 889 
Q 1547 409 2034 409 
Q 2525 409 2770 889 
Q 3016 1369 3016 2328 
Q 3016 3291 2770 3770 
Q 2525 4250 2034 4250 
z
M 2034 4750 
Q 2819 4750 3233 4129 
Q 3647 3509 3647 2328 
Q 3647 1150 3233 529 
Q 2819 -91 2034 -91 
Q 1250 -91 836 529 
Q 422 1150 422 2328 
Q 422 3509 836 4129 
Q 1250 4750 2034 4750 
z
" transform="scale(0.015625)"/>
      </defs>
      <use xlink:href="#DejaVuSans-32"/>
      <use xlink:href="#DejaVuSans-30" transform="translate(63.623047 0)"/>
      <use xlink:href="#DejaVuSans-31" transform="translate(127.246094 0)"/>
      <use xlink:href="#DejaVuSans-31" transform="translate(190.869141 0)"/>
     </g>
    </g>
    <g id="line2d_15">
     <path d="M 460.731969 49.0705 
L 470.731969 49.0705 
L 480.731969 49.0705 
" style="fill: none; stroke: #ff7f0e; stroke-width: 2; stroke-linecap: square"/>
    </g>
    <g id="text_13">
     <!-- 2016 -->
     <g transform="translate(488.731969 52.5705) scale(0.1 -0.1)">
      <use xlink:href="#DejaVuSans-32"/>
      <use xlink:href="#DejaVuSans-30" transform="translate(63.623047 0)"/>
      <use xlink:href="#DejaVuSans-31" transform="translate(127.246094 0)"/>
      <use xlink:href="#DejaVuSans-36" transform="translate(190.869141 0)"/>
     </g>
    </g>
    <g id="line2d_16">
     <path d="M 460.731969 63.748625 
L 470.731969 63.748625 
L 480.731969 63.748625 
" style="fill: none; stroke: #2ca02c; stroke-width: 2; stroke-linecap: square"/>
    </g>
    <g id="text_14">
     <!-- 2017 -->
     <g transform="translate(488.731969 67.248625) scale(0.1 -0.1)">
      <defs>
       <path id="DejaVuSans-37" d="M 525 4666 
L 3525 4666 
L 3525 4397 
L 1831 0 
L 1172 0 
L 2766 4134 
L 525 4134 
L 525 4666 
z
" transform="scale(0.015625)"/>
      </defs>
      <use xlink:href="#DejaVuSans-32"/>
      <use xlink:href="#DejaVuSans-30" transform="translate(63.623047 0)"/>
      <use xlink:href="#DejaVuSans-31" transform="translate(127.246094 0)"/>
      <use xlink:href="#DejaVuSans-37" transform="translate(190.869141 0)"/>
     </g>
    </g>
   </g>
  </g>
 </g>
 <defs>
  <clipPath id="p1cbd657acd">
   <path d="M 452.137969 234.425937 
C 452.137969 211.102406 447.543742 188.005666 438.618213 166.457533 
C 429.692683 144.9094 416.609431 125.328929 400.117204 108.836702 
C 383.624977 92.344475 364.044507 79.261223 342.496373 70.335694 
C 320.94824 61.410165 297.8515 56.815937 274.527969 56.815937 
C 251.204437 56.815937 228.107698 61.410165 206.559564 70.335694 
C 185.011431 79.261223 165.430961 92.344475 148.938733 108.836702 
C 132.446506 125.328929 119.363254 144.9094 110.437725 166.457533 
C 101.512196 188.005666 96.917969 211.102406 96.917969 234.425937 
C 96.917969 257.749469 101.512196 280.846209 110.437725 302.394342 
C 119.363254 323.942475 132.446506 343.522946 148.938733 360.015173 
C 165.430961 376.5074 185.011431 389.590652 206.559564 398.516181 
C 228.107698 407.44171 251.204437 412.035937 274.527969 412.035937 
C 297.8515 412.035937 320.94824 407.44171 342.496373 398.516181 
C 364.044507 389.590652 383.624977 376.5074 400.117204 360.015173 
C 416.609431 343.522946 429.692683 323.942475 438.618213 302.394342 
C 447.543742 280.846209 452.137969 257.749469 452.137969 234.425937 
M 274.527969 234.425937 
C 274.527969 234.425937 274.527969 234.425937 274.527969 234.425937 
C 274.527969 234.425937 274.527969 234.425937 274.527969 234.425937 
C 274.527969 234.425937 274.527969 234.425937 274.527969 234.425937 
C 274.527969 234.425937 274.527969 234.425937 274.527969 234.425937 
C 274.527969 234.425937 274.527969 234.425937 274.527969 234.425937 
C 274.527969 234.425937 274.527969 234.425937 274.527969 234.425937 
C 274.527969 234.425937 274.527969 234.425937 274.527969 234.425937 
C 274.527969 234.425937 274.527969 234.425937 274.527969 234.425937 
C 274.527969 234.425937 274.527969 234.425937 274.527969 234.425937 
C 274.527969 234.425937 274.527969 234.425937 274.527969 234.425937 
C 274.527969 234.425937 274.527969 234.425937 274.527969 234.425937 
C 274.527969 234.425937 274.527969 234.425937 274.527969 234.425937 
C 274.527969 234.425937 274.527969 234.425937 274.527969 234.425937 
C 274.527969 234.425937 274.527969 234.425937 274.527969 234.425937 
C 274.527969 234.425937 274.527969 234.425937 274.527969 234.425937 
C 274.527969 234.425937 274.527969 234.425937 274.527969 234.425937 
z
"/>
  </clipPath>
 </defs>
</svg>
