<?xml version="1.0" encoding="utf-8" standalone="no"?>
<!DOCTYPE svg PUBLIC "-//W3C//DTD SVG 1.1//EN"
  "http://www.w3.org/Graphics/SVG/1.1/DTD/svg11.dtd">
<svg xmlns:xlink="http://www.w3.org/1999/xlink" width="3457.42275pt" height="3305.926458pt" viewBox="0 0 3457.42275 3305.926458" xmlns="http://www.w3.org/2000/svg" version="1.1">
 <metadata>
  <rdf:RDF xmlns:dc="http://purl.org/dc/elements/1.1/" xmlns:cc="http://creativecommons.org/ns#" xmlns:rdf="http://www.w3.org/1999/02/22-rdf-syntax-ns#">
   <cc:Work>
    <dc:type rdf:resource="http://purl.org/dc/dcmitype/StillImage"/>
    <dc:date>2025-11-12T20:40:39.084108</dc:date>
    <dc:format>image/svg+xml</dc:format>
    <dc:creator>
     <cc:Agent>
      <dc:title>Matplotlib v3.10.5, https://matplotlib.org/</dc:title>
     </cc:Agent>
    </dc:creator>
   </cc:Work>
  </rdf:RDF>
 </metadata>
 <defs>
  <style type="text/css">*{stroke-linejoin: round; stroke-linecap: butt}</style>
 </defs>
 <g id="figure_1">
  <g id="patch_1">
   <path d="M 0 3305.926458 
L 3457.42275 3305.926458 
L 3457.42275 0 
L 0 0 
z
" style="fill: #ffffff"/>
  </g>
  <g id="axes_1">
   <g id="PathCollection_1">
    <defs>
     <path id="m3f2c0dcdb4" d="M 0 2.738613 
C 0.726289 2.738613 1.422928 2.450055 1.936492 1.936492 
C 2.450055 1.422928 2.738613 0.726289 2.738613 0 
C 2.738613 -0.726289 2.450055 -1.422928 1.936492 -1.936492 
C 1.422928 -2.450055 0.726289 -2.738613 0 -2.738613 
C -0.726289 -2.738613 -1.422928 -2.450055 -1.936492 -1.936492 
C -2.450055 -1.422928 -2.738613 -0.726289 -2.738613 0 
C -2.738613 0.726289 -2.450055 1.422928 -1.936492 1.936492 
C -1.422928 2.450055 -0.726289 2.738613 0 2.738613 
z
" style="stroke: #333333"/>
    </defs>
    <g clip-path="url(#p05f4f5cc1f)">
     <use xlink:href="#m3f2c0dcdb4" x="2989.379606" y="1648.435529" style="fill: #333333; stroke: #333333"/>
     <use xlink:href="#m3f2c0dcdb4" x="2596.778366" y="881.661067" style="fill: #333333; stroke: #333333"/>
     <use xlink:href="#m3f2c0dcdb4" x="1635.582225" y="568.471498" style="fill: #333333; stroke: #333333"/>
     <use xlink:href="#m3f2c0dcdb4" x="674.386084" y="881.661067" style="fill: #333333; stroke: #333333"/>
     <use xlink:href="#m3f2c0dcdb4" x="281.784844" y="1648.435529" style="fill: #333333; stroke: #333333"/>
     <use xlink:href="#m3f2c0dcdb4" x="674.386084" y="2415.209991" style="fill: #333333; stroke: #333333"/>
     <use xlink:href="#m3f2c0dcdb4" x="1635.582225" y="2728.39956" style="fill: #333333; stroke: #333333"/>
     <use xlink:href="#m3f2c0dcdb4" x="2596.778366" y="2415.209991" style="fill: #333333; stroke: #333333"/>
    </g>
   </g>
   <g id="patch_2">
    <path d="M 2312.480916 1648.435529 
L 2116.180295 1265.048298 
L 1635.582225 1108.453513 
L 1154.984155 1265.048298 
L 733.050637 1648.435529 
L 1154.984155 2031.82276 
L 1635.582225 2188.417544 
L 2116.180295 2031.82276 
z
" clip-path="url(#p05f4f5cc1f)" style="fill: #1f77b4; opacity: 0.2; stroke: #1f77b4; stroke-linejoin: miter"/>
   </g>
   <g id="patch_3">
    <path d="M 2312.480916 1648.435529 
L 2116.180295 1265.048298 
L 1635.582225 1108.453513 
L 1154.984155 1265.048298 
L 733.050637 1648.435529 
L 1154.984155 2031.82276 
L 1635.582225 2188.417544 
L 2116.180295 2031.82276 
z
" clip-path="url(#p05f4f5cc1f)" style="fill: #ff7f0e; opacity: 0.2; stroke: #ff7f0e; stroke-linejoin: miter"/>
   </g>
   <g id="patch_4">
    <path d="M 2312.480916 1648.435529 
L 2116.180295 1265.048298 
L 1635.582225 1108.453513 
L 1154.984155 1265.048298 
L 733.050637 1648.435529 
L 1154.984155 2031.82276 
L 1635.582225 2188.417544 
L 2116.180295 2031.82276 
z
" clip-path="url(#p05f4f5cc1f)" style="fill: #2ca02c; opacity: 0.2; stroke: #2ca02c; stroke-linejoin: miter"/>
   </g>
   <g id="patch_5">
    <path d="M 2312.480916 1648.435529 
L 2116.180295 1265.048298 
L 1635.582225 1108.453513 
L 1154.984155 1265.048298 
L 733.050637 1648.435529 
L 1154.984155 2031.82276 
L 1635.582225 2188.417544 
L 2116.180295 2031.82276 
z
" clip-path="url(#p05f4f5cc1f)" style="fill: #d62728; opacity: 0.2; stroke: #d62728; stroke-linejoin: miter"/>
   </g>
   <g id="patch_6">
    <path d="M 2312.480916 1648.435529 
L 2116.180295 1265.048298 
L 1635.582225 1108.453513 
L 1154.984155 1265.048298 
L 733.050637 1648.435529 
L 1154.984155 2031.82276 
L 1635.582225 2188.417544 
L 2116.180295 2031.82276 
z
" clip-path="url(#p05f4f5cc1f)" style="fill: #9467bd; opacity: 0.2; stroke: #9467bd; stroke-linejoin: miter"/>
   </g>
   <g id="patch_7">
    <path d="M 2312.480916 1648.435529 
L 2116.180295 1265.048298 
L 1635.582225 1108.453513 
L 1154.984155 1265.048298 
L 733.050637 1648.435529 
L 1154.984155 2031.82276 
L 1635.582225 2188.417544 
L 2116.180295 2031.82276 
z
" clip-path="url(#p05f4f5cc1f)" style="fill: #8c564b; opacity: 0.2; stroke: #8c564b; stroke-linejoin: miter"/>
   </g>
   <g id="patch_8">
    <path d="M 2312.480916 1648.435529 
L 2116.180295 1265.048298 
L 1635.582225 1108.453513 
L 1154.984155 1265.048298 
L 733.050637 1648.435529 
L 1154.984155 2031.82276 
L 1635.582225 2188.417544 
L 2116.180295 2031.82276 
z
" clip-path="url(#p05f4f5cc1f)" style="fill: #e377c2; opacity: 0.2; stroke: #e377c2; stroke-linejoin: miter"/>
   </g>
   <g id="patch_9">
    <path d="M 2312.480916 1648.435529 
L 2116.180295 1265.048298 
L 1635.582225 1108.453513 
L 1154.984155 1265.048298 
L 733.050637 1648.435529 
L 1154.984155 2031.82276 
L 1635.582225 2188.417544 
L 2116.180295 2031.82276 
z
" clip-path="url(#p05f4f5cc1f)" style="fill: #7f7f7f; opacity: 0.2; stroke: #7f7f7f; stroke-linejoin: miter"/>
   </g>
   <g id="patch_10">
    <path d="M 2312.480916 1648.435529 
L 2116.180295 1265.048298 
L 1635.582225 1108.453513 
L 1154.984155 1265.048298 
L 733.050637 1648.435529 
L 1154.984155 2031.82276 
L 1635.582225 2188.417544 
L 2116.180295 2031.82276 
z
" clip-path="url(#p05f4f5cc1f)" style="fill: #bcbd22; opacity: 0.2; stroke: #bcbd22; stroke-linejoin: miter"/>
   </g>
   <g id="patch_11">
    <path d="M 2312.480916 1648.435529 
L 2116.180295 1265.048298 
L 1635.582225 1108.453513 
L 1154.984155 1265.048298 
L 733.050637 1648.435529 
L 1154.984155 2031.82276 
L 1635.582225 2188.417544 
L 2116.180295 2031.82276 
z
" clip-path="url(#p05f4f5cc1f)" style="fill: #17becf; opacity: 0.2; stroke: #17becf; stroke-linejoin: miter"/>
   </g>
   <g id="patch_12">
    <path d="M 2312.480916 1648.435529 
L 2116.180295 1265.048298 
L 1635.582225 1108.453513 
L 1154.984155 1265.048298 
L 733.050637 1648.435529 
L 1154.984155 2031.82276 
L 1635.582225 2188.417544 
L 2116.180295 2031.82276 
z
" clip-path="url(#p05f4f5cc1f)" style="fill: #1f77b4; opacity: 0.2; stroke: #1f77b4; stroke-linejoin: miter"/>
   </g>
   <g id="line2d_1">
    <path d="M 2989.379606 1648.435529 
L 2596.778366 881.661067 
L 1635.582225 568.471498 
L 674.386084 881.661067 
L 281.784844 1648.435529 
L 674.386084 2415.209991 
L 1635.582225 2728.39956 
L 2596.778366 2415.209991 
L 2989.379606 1648.435529 
" clip-path="url(#p05f4f5cc1f)" style="fill: none; stroke: #999999; stroke-linecap: square"/>
   </g>
   <g id="line2d_2">
    <path d="M 1974.03157 1648.435529 
L 1875.88126 1456.741913 
L 1635.582225 1378.444521 
L 1395.28319 1456.741913 
L 1297.13288 1648.435529 
L 1395.28319 1840.129144 
L 1635.582225 1918.426536 
L 1875.88126 1840.129144 
L 1974.03157 1648.435529 
" clip-path="url(#p05f4f5cc1f)" style="fill: none; stroke: #e5e5e5; stroke-width: 0.8; stroke-linecap: square"/>
   </g>
   <g id="line2d_3">
    <path d="M 2312.480916 1648.435529 
L 2116.180295 1265.048298 
L 1635.582225 1108.453513 
L 1154.984155 1265.048298 
L 958.683534 1648.435529 
L 1154.984155 2031.82276 
L 1635.582225 2188.417544 
L 2116.180295 2031.82276 
L 2312.480916 1648.435529 
" clip-path="url(#p05f4f5cc1f)" style="fill: none; stroke: #e5e5e5; stroke-width: 0.8; stroke-linecap: square"/>
   </g>
   <g id="line2d_4">
    <path d="M 2650.930261 1648.435529 
L 2356.479331 1073.354682 
L 1635.582225 838.462506 
L 914.685119 1073.354682 
L 620.234189 1648.435529 
L 914.685119 2223.516375 
L 1635.582225 2458.408552 
L 2356.479331 2223.516375 
L 2650.930261 1648.435529 
" clip-path="url(#p05f4f5cc1f)" style="fill: none; stroke: #e5e5e5; stroke-width: 0.8; stroke-linecap: square"/>
   </g>
   <g id="line2d_5">
    <path d="M 2989.379606 1648.435529 
L 2596.778366 881.661067 
L 1635.582225 568.471498 
L 674.386084 881.661067 
L 281.784844 1648.435529 
L 674.386084 2415.209991 
L 1635.582225 2728.39956 
L 2596.778366 2415.209991 
L 2989.379606 1648.435529 
" clip-path="url(#p05f4f5cc1f)" style="fill: none; stroke: #e5e5e5; stroke-width: 0.8; stroke-linecap: square"/>
   </g>
   <g id="line2d_6">
    <path d="M 1635.582225 1648.435529 
L 2989.379606 1648.435529 
" clip-path="url(#p05f4f5cc1f)" style="fill: none; stroke: #eeeeee; stroke-width: 0.8; stroke-linecap: square"/>
   </g>
   <g id="line2d_7">
    <path d="M 1635.582225 1648.435529 
L 2596.778366 881.661067 
" clip-path="url(#p05f4f5cc1f)" style="fill: none; stroke: #eeeeee; stroke-width: 0.8; stroke-linecap: square"/>
   </g>
   <g id="line2d_8">
    <path d="M 1635.582225 1648.435529 
L 1635.582225 568.471498 
" clip-path="url(#p05f4f5cc1f)" style="fill: none; stroke: #eeeeee; stroke-width: 0.8; stroke-linecap: square"/>
   </g>
   <g id="line2d_9">
    <path d="M 1635.582225 1648.435529 
L 674.386084 881.661067 
" clip-path="url(#p05f4f5cc1f)" style="fill: none; stroke: #eeeeee; stroke-width: 0.8; stroke-linecap: square"/>
   </g>
   <g id="line2d_10">
    <path d="M 1635.582225 1648.435529 
L 281.784844 1648.435529 
" clip-path="url(#p05f4f5cc1f)" style="fill: none; stroke: #eeeeee; stroke-width: 0.8; stroke-linecap: square"/>
   </g>
   <g id="line2d_11">
    <path d="M 1635.582225 1648.435529 
L 674.386084 2415.209991 
" clip-path="url(#p05f4f5cc1f)" style="fill: none; stroke: #eeeeee; stroke-width: 0.8; stroke-linecap: square"/>
   </g>
   <g id="line2d_12">
    <path d="M 1635.582225 1648.435529 
L 1635.582225 2728.39956 
" clip-path="url(#p05f4f5cc1f)" style="fill: none; stroke: #eeeeee; stroke-width: 0.8; stroke-linecap: square"/>
   </g>
   <g id="line2d_13">
    <path d="M 1635.582225 1648.435529 
L 2596.778366 2415.209991 
" clip-path="url(#p05f4f5cc1f)" style="fill: none; stroke: #eeeeee; stroke-width: 0.8; stroke-linecap: square"/>
   </g>
   <g id="line2d_14">
    <path d="M 2312.480916 1648.435529 
L 2116.180295 1265.048298 
L 1635.582225 1108.453513 
L 1154.984155 1265.048298 
L 733.050637 1648.435529 
L 1154.984155 2031.82276 
L 1635.582225 2188.417544 
L 2116.180295 2031.82276 
L 2312.480916 1648.435529 
" clip-path="url(#p05f4f5cc1f)" style="fill: none; stroke: #1f77b4; stroke-width: 2; stroke-linecap: square"/>
   </g>
   <g id="line2d_15">
    <path d="M 2312.480916 1648.435529 
L 2116.180295 1265.048298 
L 1635.582225 1108.453513 
L 1154.984155 1265.048298 
L 733.050637 1648.435529 
L 1154.984155 2031.82276 
L 1635.582225 2188.417544 
L 2116.180295 2031.82276 
L 2312.480916 1648.435529 
" clip-path="url(#p05f4f5cc1f)" style="fill: none; stroke: #ff7f0e; stroke-width: 2; stroke-linecap: square"/>
   </g>
   <g id="line2d_16">
    <path d="M 2312.480916 1648.435529 
L 2116.180295 1265.048298 
L 1635.582225 1108.453513 
L 1154.984155 1265.048298 
L 733.050637 1648.435529 
L 1154.984155 2031.82276 
L 1635.582225 2188.417544 
L 2116.180295 2031.82276 
L 2312.480916 1648.435529 
" clip-path="url(#p05f4f5cc1f)" style="fill: none; stroke: #2ca02c; stroke-width: 2; stroke-linecap: square"/>
   </g>
   <g id="line2d_17">
    <path d="M 2312.480916 1648.435529 
L 2116.180295 1265.048298 
L 1635.582225 1108.453513 
L 1154.984155 1265.048298 
L 733.050637 1648.435529 
L 1154.984155 2031.82276 
L 1635.582225 2188.417544 
L 2116.180295 2031.82276 
L 2312.480916 1648.435529 
" clip-path="url(#p05f4f5cc1f)" style="fill: none; stroke: #d62728; stroke-width: 2; stroke-linecap: square"/>
   </g>
   <g id="line2d_18">
    <path d="M 2312.480916 1648.435529 
L 2116.180295 1265.048298 
L 1635.582225 1108.453513 
L 1154.984155 1265.048298 
L 733.050637 1648.435529 
L 1154.984155 2031.82276 
L 1635.582225 2188.417544 
L 2116.180295 2031.82276 
L 2312.480916 1648.435529 
" clip-path="url(#p05f4f5cc1f)" style="fill: none; stroke: #9467bd; stroke-width: 2; stroke-linecap: square"/>
   </g>
   <g id="line2d_19">
    <path d="M 2312.480916 1648.435529 
L 2116.180295 1265.048298 
L 1635.582225 1108.453513 
L 1154.984155 1265.048298 
L 733.050637 1648.435529 
L 1154.984155 2031.82276 
L 1635.582225 2188.417544 
L 2116.180295 2031.82276 
L 2312.480916 1648.435529 
" clip-path="url(#p05f4f5cc1f)" style="fill: none; stroke: #8c564b; stroke-width: 2; stroke-linecap: square"/>
   </g>
   <g id="line2d_20">
    <path d="M 2312.480916 1648.435529 
L 2116.180295 1265.048298 
L 1635.582225 1108.453513 
L 1154.984155 1265.048298 
L 733.050637 1648.435529 
L 1154.984155 2031.82276 
L 1635.582225 2188.417544 
L 2116.180295 2031.82276 
L 2312.480916 1648.435529 
" clip-path="url(#p05f4f5cc1f)" style="fill: none; stroke: #e377c2; stroke-width: 2; stroke-linecap: square"/>
   </g>
   <g id="line2d_21">
    <path d="M 2312.480916 1648.435529 
L 2116.180295 1265.048298 
L 1635.582225 1108.453513 
L 1154.984155 1265.048298 
L 733.050637 1648.435529 
L 1154.984155 2031.82276 
L 1635.582225 2188.417544 
L 2116.180295 2031.82276 
L 2312.480916 1648.435529 
" clip-path="url(#p05f4f5cc1f)" style="fill: none; stroke: #7f7f7f; stroke-width: 2; stroke-linecap: square"/>
   </g>
   <g id="line2d_22">
    <path d="M 2312.480916 1648.435529 
L 2116.180295 1265.048298 
L 1635.582225 1108.453513 
L 1154.984155 1265.048298 
L 733.050637 1648.435529 
L 1154.984155 2031.82276 
L 1635.582225 2188.417544 
L 2116.180295 2031.82276 
L 2312.480916 1648.435529 
" clip-path="url(#p05f4f5cc1f)" style="fill: none; stroke: #bcbd22; stroke-width: 2; stroke-linecap: square"/>
   </g>
   <g id="line2d_23">
    <path d="M 2312.480916 1648.435529 
L 2116.180295 1265.048298 
L 1635.582225 1108.453513 
L 1154.984155 1265.048298 
L 733.050637 1648.435529 
L 1154.984155 2031.82276 
L 1635.582225 2188.417544 
L 2116.180295 2031.82276 
L 2312.480916 1648.435529 
" clip-path="url(#p05f4f5cc1f)" style="fill: none; stroke: #17becf; stroke-width: 2; stroke-linecap: square"/>
   </g>
   <g id="line2d_24">
    <path d="M 2312.480916 1648.435529 
L 2116.180295 1265.048298 
L 1635.582225 1108.453513 
L 1154.984155 1265.048298 
L 733.050637 1648.435529 
L 1154.984155 2031.82276 
L 1635.582225 2188.417544 
L 2116.180295 2031.82276 
L 2312.480916 1648.435529 
" clip-path="url(#p05f4f5cc1f)" style="fill: none; stroke: #1f77b4; stroke-width: 2; stroke-linecap: square"/>
   </g>
   <g id="line2d_25">
    <path d="M 1607.378113 1648.435529 
L 1607.378113 1648.435529 
L 1607.378113 1648.435529 
L 1607.378113 1648.435529 
L 1607.378113 1648.435529 
L 1607.378113 1648.435529 
L 1607.378113 1648.435529 
L 1607.378113 1648.435529 
L 1607.378113 1648.435529 
L 1607.378113 1648.435529 
L 1607.378113 1648.435529 
" clip-path="url(#p05f4f5cc1f)" style="fill: none; stroke-dasharray: 4.44,1.92; stroke-dashoffset: 0; stroke: #333333; stroke-opacity: 0.85; stroke-width: 1.2"/>
   </g>
   <g id="text_1">
    <g id="patch_13">
     <path d="M 2937.411638 1654.590685 
L 3041.347575 1654.590685 
Q 3043.147575 1654.590685 3043.147575 1652.790685 
L 3043.147575 1644.080372 
Q 3043.147575 1642.280372 3041.347575 1642.280372 
L 2937.411638 1642.280372 
Q 2935.611638 1642.280372 2935.611638 1644.080372 
L 2935.611638 1652.790685 
Q 2935.611638 1654.590685 2937.411638 1654.590685 
z
" style="fill: #ffffff; opacity: 0.7"/>
    </g>
    <!-- Creativity &amp; Innovation -->
    <g transform="translate(2937.411638 1650.918966) scale(0.09 -0.09)">
     <defs>
      <path id="DejaVuSans-43" d="M 4122 4306 
L 4122 3641 
Q 3803 3938 3442 4084 
Q 3081 4231 2675 4231 
Q 1875 4231 1450 3742 
Q 1025 3253 1025 2328 
Q 1025 1406 1450 917 
Q 1875 428 2675 428 
Q 3081 428 3442 575 
Q 3803 722 4122 1019 
L 4122 359 
Q 3791 134 3420 21 
Q 3050 -91 2638 -91 
Q 1578 -91 968 557 
Q 359 1206 359 2328 
Q 359 3453 968 4101 
Q 1578 4750 2638 4750 
Q 3056 4750 3426 4639 
Q 3797 4528 4122 4306 
z
" transform="scale(0.015625)"/>
      <path id="DejaVuSans-72" d="M 2631 2963 
Q 2534 3019 2420 3045 
Q 2306 3072 2169 3072 
Q 1681 3072 1420 2755 
Q 1159 2438 1159 1844 
L 1159 0 
L 581 0 
L 581 3500 
L 1159 3500 
L 1159 2956 
Q 1341 3275 1631 3429 
Q 1922 3584 2338 3584 
Q 2397 3584 2469 3576 
Q 2541 3569 2628 3553 
L 2631 2963 
z
" transform="scale(0.015625)"/>
      <path id="DejaVuSans-65" d="M 3597 1894 
L 3597 1613 
L 953 1613 
Q 991 1019 1311 708 
Q 1631 397 2203 397 
Q 2534 397 2845 478 
Q 3156 559 3463 722 
L 3463 178 
Q 3153 47 2828 -22 
Q 2503 -91 2169 -91 
Q 1331 -91 842 396 
Q 353 884 353 1716 
Q 353 2575 817 3079 
Q 1281 3584 2069 3584 
Q 2775 3584 3186 3129 
Q 3597 2675 3597 1894 
z
M 3022 2063 
Q 3016 2534 2758 2815 
Q 2500 3097 2075 3097 
Q 1594 3097 1305 2825 
Q 1016 2553 972 2059 
L 3022 2063 
z
" transform="scale(0.015625)"/>
      <path id="DejaVuSans-61" d="M 2194 1759 
Q 1497 1759 1228 1600 
Q 959 1441 959 1056 
Q 959 750 1161 570 
Q 1363 391 1709 391 
Q 2188 391 2477 730 
Q 2766 1069 2766 1631 
L 2766 1759 
L 2194 1759 
z
M 3341 1997 
L 3341 0 
L 2766 0 
L 2766 531 
Q 2569 213 2275 61 
Q 1981 -91 1556 -91 
Q 1019 -91 701 211 
Q 384 513 384 1019 
Q 384 1609 779 1909 
Q 1175 2209 1959 2209 
L 2766 2209 
L 2766 2266 
Q 2766 2663 2505 2880 
Q 2244 3097 1772 3097 
Q 1472 3097 1187 3025 
Q 903 2953 641 2809 
L 641 3341 
Q 956 3463 1253 3523 
Q 1550 3584 1831 3584 
Q 2591 3584 2966 3190 
Q 3341 2797 3341 1997 
z
" transform="scale(0.015625)"/>
      <path id="DejaVuSans-74" d="M 1172 4494 
L 1172 3500 
L 2356 3500 
L 2356 3053 
L 1172 3053 
L 1172 1153 
Q 1172 725 1289 603 
Q 1406 481 1766 481 
L 2356 481 
L 2356 0 
L 1766 0 
Q 1100 0 847 248 
Q 594 497 594 1153 
L 594 3053 
L 172 3053 
L 172 3500 
L 594 3500 
L 594 4494 
L 1172 4494 
z
" transform="scale(0.015625)"/>
      <path id="DejaVuSans-69" d="M 603 3500 
L 1178 3500 
L 1178 0 
L 603 0 
L 603 3500 
z
M 603 4863 
L 1178 4863 
L 1178 4134 
L 603 4134 
L 603 4863 
z
" transform="scale(0.015625)"/>
      <path id="DejaVuSans-76" d="M 191 3500 
L 800 3500 
L 1894 563 
L 2988 3500 
L 3597 3500 
L 2284 0 
L 1503 0 
L 191 3500 
z
" transform="scale(0.015625)"/>
      <path id="DejaVuSans-79" d="M 2059 -325 
Q 1816 -950 1584 -1140 
Q 1353 -1331 966 -1331 
L 506 -1331 
L 506 -850 
L 844 -850 
Q 1081 -850 1212 -737 
Q 1344 -625 1503 -206 
L 1606 56 
L 191 3500 
L 800 3500 
L 1894 763 
L 2988 3500 
L 3597 3500 
L 2059 -325 
z
" transform="scale(0.015625)"/>
      <path id="DejaVuSans-20" transform="scale(0.015625)"/>
      <path id="DejaVuSans-26" d="M 1556 2509 
Q 1272 2256 1139 2004 
Q 1006 1753 1006 1478 
Q 1006 1022 1337 719 
Q 1669 416 2169 416 
Q 2466 416 2725 514 
Q 2984 613 3213 813 
L 1556 2509 
z
M 1997 2859 
L 3584 1234 
Q 3769 1513 3872 1830 
Q 3975 2147 3994 2503 
L 4575 2503 
Q 4538 2091 4375 1687 
Q 4213 1284 3922 891 
L 4794 0 
L 4006 0 
L 3559 459 
Q 3234 181 2878 45 
Q 2522 -91 2113 -91 
Q 1359 -91 881 339 
Q 403 769 403 1441 
Q 403 1841 612 2192 
Q 822 2544 1241 2853 
Q 1091 3050 1012 3245 
Q 934 3441 934 3628 
Q 934 4134 1281 4442 
Q 1628 4750 2203 4750 
Q 2463 4750 2720 4694 
Q 2978 4638 3244 4525 
L 3244 3956 
Q 2972 4103 2725 4179 
Q 2478 4256 2266 4256 
Q 1938 4256 1733 4082 
Q 1528 3909 1528 3634 
Q 1528 3475 1620 3314 
Q 1713 3153 1997 2859 
z
" transform="scale(0.015625)"/>
      <path id="DejaVuSans-49" d="M 628 4666 
L 1259 4666 
L 1259 0 
L 628 0 
L 628 4666 
z
" transform="scale(0.015625)"/>
      <path id="DejaVuSans-6e" d="M 3513 2113 
L 3513 0 
L 2938 0 
L 2938 2094 
Q 2938 2591 2744 2837 
Q 2550 3084 2163 3084 
Q 1697 3084 1428 2787 
Q 1159 2491 1159 1978 
L 1159 0 
L 581 0 
L 581 3500 
L 1159 3500 
L 1159 2956 
Q 1366 3272 1645 3428 
Q 1925 3584 2291 3584 
Q 2894 3584 3203 3211 
Q 3513 2838 3513 2113 
z
" transform="scale(0.015625)"/>
      <path id="DejaVuSans-6f" d="M 1959 3097 
Q 1497 3097 1228 2736 
Q 959 2375 959 1747 
Q 959 1119 1226 758 
Q 1494 397 1959 397 
Q 2419 397 2687 759 
Q 2956 1122 2956 1747 
Q 2956 2369 2687 2733 
Q 2419 3097 1959 3097 
z
M 1959 3584 
Q 2709 3584 3137 3096 
Q 3566 2609 3566 1747 
Q 3566 888 3137 398 
Q 2709 -91 1959 -91 
Q 1206 -91 779 398 
Q 353 888 353 1747 
Q 353 2609 779 3096 
Q 1206 3584 1959 3584 
z
" transform="scale(0.015625)"/>
     </defs>
     <use xlink:href="#DejaVuSans-43"/>
     <use xlink:href="#DejaVuSans-72" transform="translate(69.824219 0)"/>
     <use xlink:href="#DejaVuSans-65" transform="translate(108.6875 0)"/>
     <use xlink:href="#DejaVuSans-61" transform="translate(170.210938 0)"/>
     <use xlink:href="#DejaVuSans-74" transform="translate(231.490234 0)"/>
     <use xlink:href="#DejaVuSans-69" transform="translate(270.699219 0)"/>
     <use xlink:href="#DejaVuSans-76" transform="translate(298.482422 0)"/>
     <use xlink:href="#DejaVuSans-69" transform="translate(357.662109 0)"/>
     <use xlink:href="#DejaVuSans-74" transform="translate(385.445312 0)"/>
     <use xlink:href="#DejaVuSans-79" transform="translate(424.654297 0)"/>
     <use xlink:href="#DejaVuSans-20" transform="translate(483.833984 0)"/>
     <use xlink:href="#DejaVuSans-26" transform="translate(515.621094 0)"/>
     <use xlink:href="#DejaVuSans-20" transform="translate(593.599609 0)"/>
     <use xlink:href="#DejaVuSans-49" transform="translate(625.386719 0)"/>
     <use xlink:href="#DejaVuSans-6e" transform="translate(654.878906 0)"/>
     <use xlink:href="#DejaVuSans-6e" transform="translate(718.257812 0)"/>
     <use xlink:href="#DejaVuSans-6f" transform="translate(781.636719 0)"/>
     <use xlink:href="#DejaVuSans-76" transform="translate(842.818359 0)"/>
     <use xlink:href="#DejaVuSans-61" transform="translate(901.998047 0)"/>
     <use xlink:href="#DejaVuSans-74" transform="translate(963.277344 0)"/>
     <use xlink:href="#DejaVuSans-69" transform="translate(1002.486328 0)"/>
     <use xlink:href="#DejaVuSans-6f" transform="translate(1030.269531 0)"/>
     <use xlink:href="#DejaVuSans-6e" transform="translate(1091.451172 0)"/>
    </g>
   </g>
   <g id="text_2">
    <g id="patch_14">
     <path d="M 2544.866647 887.816223 
L 2648.690085 887.816223 
Q 2650.490085 887.816223 2650.490085 886.016223 
L 2650.490085 877.305911 
Q 2650.490085 875.505911 2648.690085 875.505911 
L 2544.866647 875.505911 
Q 2543.066647 875.505911 2543.066647 877.305911 
L 2543.066647 886.016223 
Q 2543.066647 887.816223 2544.866647 887.816223 
z
" style="fill: #ffffff; opacity: 0.7"/>
    </g>
    <!-- Focus on Unmet Needs -->
    <g transform="translate(2544.866647 884.144504) scale(0.09 -0.09)">
     <defs>
      <path id="DejaVuSans-46" d="M 628 4666 
L 3309 4666 
L 3309 4134 
L 1259 4134 
L 1259 2759 
L 3109 2759 
L 3109 2228 
L 1259 2228 
L 1259 0 
L 628 0 
L 628 4666 
z
" transform="scale(0.015625)"/>
      <path id="DejaVuSans-63" d="M 3122 3366 
L 3122 2828 
Q 2878 2963 2633 3030 
Q 2388 3097 2138 3097 
Q 1578 3097 1268 2742 
Q 959 2388 959 1747 
Q 959 1106 1268 751 
Q 1578 397 2138 397 
Q 2388 397 2633 464 
Q 2878 531 3122 666 
L 3122 134 
Q 2881 22 2623 -34 
Q 2366 -91 2075 -91 
Q 1284 -91 818 406 
Q 353 903 353 1747 
Q 353 2603 823 3093 
Q 1294 3584 2113 3584 
Q 2378 3584 2631 3529 
Q 2884 3475 3122 3366 
z
" transform="scale(0.015625)"/>
      <path id="DejaVuSans-75" d="M 544 1381 
L 544 3500 
L 1119 3500 
L 1119 1403 
Q 1119 906 1312 657 
Q 1506 409 1894 409 
Q 2359 409 2629 706 
Q 2900 1003 2900 1516 
L 2900 3500 
L 3475 3500 
L 3475 0 
L 2900 0 
L 2900 538 
Q 2691 219 2414 64 
Q 2138 -91 1772 -91 
Q 1169 -91 856 284 
Q 544 659 544 1381 
z
M 1991 3584 
L 1991 3584 
z
" transform="scale(0.015625)"/>
      <path id="DejaVuSans-73" d="M 2834 3397 
L 2834 2853 
Q 2591 2978 2328 3040 
Q 2066 3103 1784 3103 
Q 1356 3103 1142 2972 
Q 928 2841 928 2578 
Q 928 2378 1081 2264 
Q 1234 2150 1697 2047 
L 1894 2003 
Q 2506 1872 2764 1633 
Q 3022 1394 3022 966 
Q 3022 478 2636 193 
Q 2250 -91 1575 -91 
Q 1294 -91 989 -36 
Q 684 19 347 128 
L 347 722 
Q 666 556 975 473 
Q 1284 391 1588 391 
Q 1994 391 2212 530 
Q 2431 669 2431 922 
Q 2431 1156 2273 1281 
Q 2116 1406 1581 1522 
L 1381 1569 
Q 847 1681 609 1914 
Q 372 2147 372 2553 
Q 372 3047 722 3315 
Q 1072 3584 1716 3584 
Q 2034 3584 2315 3537 
Q 2597 3491 2834 3397 
z
" transform="scale(0.015625)"/>
      <path id="DejaVuSans-55" d="M 556 4666 
L 1191 4666 
L 1191 1831 
Q 1191 1081 1462 751 
Q 1734 422 2344 422 
Q 2950 422 3222 751 
Q 3494 1081 3494 1831 
L 3494 4666 
L 4128 4666 
L 4128 1753 
Q 4128 841 3676 375 
Q 3225 -91 2344 -91 
Q 1459 -91 1007 375 
Q 556 841 556 1753 
L 556 4666 
z
" transform="scale(0.015625)"/>
      <path id="DejaVuSans-6d" d="M 3328 2828 
Q 3544 3216 3844 3400 
Q 4144 3584 4550 3584 
Q 5097 3584 5394 3201 
Q 5691 2819 5691 2113 
L 5691 0 
L 5113 0 
L 5113 2094 
Q 5113 2597 4934 2840 
Q 4756 3084 4391 3084 
Q 3944 3084 3684 2787 
Q 3425 2491 3425 1978 
L 3425 0 
L 2847 0 
L 2847 2094 
Q 2847 2600 2669 2842 
Q 2491 3084 2119 3084 
Q 1678 3084 1418 2786 
Q 1159 2488 1159 1978 
L 1159 0 
L 581 0 
L 581 3500 
L 1159 3500 
L 1159 2956 
Q 1356 3278 1631 3431 
Q 1906 3584 2284 3584 
Q 2666 3584 2933 3390 
Q 3200 3197 3328 2828 
z
" transform="scale(0.015625)"/>
      <path id="DejaVuSans-4e" d="M 628 4666 
L 1478 4666 
L 3547 763 
L 3547 4666 
L 4159 4666 
L 4159 0 
L 3309 0 
L 1241 3903 
L 1241 0 
L 628 0 
L 628 4666 
z
" transform="scale(0.015625)"/>
      <path id="DejaVuSans-64" d="M 2906 2969 
L 2906 4863 
L 3481 4863 
L 3481 0 
L 2906 0 
L 2906 525 
Q 2725 213 2448 61 
Q 2172 -91 1784 -91 
Q 1150 -91 751 415 
Q 353 922 353 1747 
Q 353 2572 751 3078 
Q 1150 3584 1784 3584 
Q 2172 3584 2448 3432 
Q 2725 3281 2906 2969 
z
M 947 1747 
Q 947 1113 1208 752 
Q 1469 391 1925 391 
Q 2381 391 2643 752 
Q 2906 1113 2906 1747 
Q 2906 2381 2643 2742 
Q 2381 3103 1925 3103 
Q 1469 3103 1208 2742 
Q 947 2381 947 1747 
z
" transform="scale(0.015625)"/>
     </defs>
     <use xlink:href="#DejaVuSans-46"/>
     <use xlink:href="#DejaVuSans-6f" transform="translate(53.894531 0)"/>
     <use xlink:href="#DejaVuSans-63" transform="translate(115.076172 0)"/>
     <use xlink:href="#DejaVuSans-75" transform="translate(170.056641 0)"/>
     <use xlink:href="#DejaVuSans-73" transform="translate(233.435547 0)"/>
     <use xlink:href="#DejaVuSans-20" transform="translate(285.535156 0)"/>
     <use xlink:href="#DejaVuSans-6f" transform="translate(317.322266 0)"/>
     <use xlink:href="#DejaVuSans-6e" transform="translate(378.503906 0)"/>
     <use xlink:href="#DejaVuSans-20" transform="translate(441.882812 0)"/>
     <use xlink:href="#DejaVuSans-55" transform="translate(473.669922 0)"/>
     <use xlink:href="#DejaVuSans-6e" transform="translate(546.863281 0)"/>
     <use xlink:href="#DejaVuSans-6d" transform="translate(610.242188 0)"/>
     <use xlink:href="#DejaVuSans-65" transform="translate(707.654297 0)"/>
     <use xlink:href="#DejaVuSans-74" transform="translate(769.177734 0)"/>
     <use xlink:href="#DejaVuSans-20" transform="translate(808.386719 0)"/>
     <use xlink:href="#DejaVuSans-4e" transform="translate(840.173828 0)"/>
     <use xlink:href="#DejaVuSans-65" transform="translate(914.978516 0)"/>
     <use xlink:href="#DejaVuSans-65" transform="translate(976.501953 0)"/>
     <use xlink:href="#DejaVuSans-64" transform="translate(1038.025391 0)"/>
     <use xlink:href="#DejaVuSans-73" transform="translate(1101.501953 0)"/>
    </g>
   </g>
   <g id="text_3">
    <g id="patch_15">
     <path d="M 1582.496287 574.626654 
L 1688.668162 574.626654 
Q 1690.468162 574.626654 1690.468162 572.826654 
L 1690.468162 564.116342 
Q 1690.468162 562.316342 1688.668162 562.316342 
L 1582.496287 562.316342 
Q 1580.696287 562.316342 1580.696287 564.116342 
L 1580.696287 572.826654 
Q 1580.696287 574.626654 1582.496287 574.626654 
z
" style="fill: #ffffff; opacity: 0.7"/>
    </g>
    <!-- Generalizable Solutions -->
    <g transform="translate(1582.496287 570.954935) scale(0.09 -0.09)">
     <defs>
      <path id="DejaVuSans-47" d="M 3809 666 
L 3809 1919 
L 2778 1919 
L 2778 2438 
L 4434 2438 
L 4434 434 
Q 4069 175 3628 42 
Q 3188 -91 2688 -91 
Q 1594 -91 976 548 
Q 359 1188 359 2328 
Q 359 3472 976 4111 
Q 1594 4750 2688 4750 
Q 3144 4750 3555 4637 
Q 3966 4525 4313 4306 
L 4313 3634 
Q 3963 3931 3569 4081 
Q 3175 4231 2741 4231 
Q 1884 4231 1454 3753 
Q 1025 3275 1025 2328 
Q 1025 1384 1454 906 
Q 1884 428 2741 428 
Q 3075 428 3337 486 
Q 3600 544 3809 666 
z
" transform="scale(0.015625)"/>
      <path id="DejaVuSans-6c" d="M 603 4863 
L 1178 4863 
L 1178 0 
L 603 0 
L 603 4863 
z
" transform="scale(0.015625)"/>
      <path id="DejaVuSans-7a" d="M 353 3500 
L 3084 3500 
L 3084 2975 
L 922 459 
L 3084 459 
L 3084 0 
L 275 0 
L 275 525 
L 2438 3041 
L 353 3041 
L 353 3500 
z
" transform="scale(0.015625)"/>
      <path id="DejaVuSans-62" d="M 3116 1747 
Q 3116 2381 2855 2742 
Q 2594 3103 2138 3103 
Q 1681 3103 1420 2742 
Q 1159 2381 1159 1747 
Q 1159 1113 1420 752 
Q 1681 391 2138 391 
Q 2594 391 2855 752 
Q 3116 1113 3116 1747 
z
M 1159 2969 
Q 1341 3281 1617 3432 
Q 1894 3584 2278 3584 
Q 2916 3584 3314 3078 
Q 3713 2572 3713 1747 
Q 3713 922 3314 415 
Q 2916 -91 2278 -91 
Q 1894 -91 1617 61 
Q 1341 213 1159 525 
L 1159 0 
L 581 0 
L 581 4863 
L 1159 4863 
L 1159 2969 
z
" transform="scale(0.015625)"/>
      <path id="DejaVuSans-53" d="M 3425 4513 
L 3425 3897 
Q 3066 4069 2747 4153 
Q 2428 4238 2131 4238 
Q 1616 4238 1336 4038 
Q 1056 3838 1056 3469 
Q 1056 3159 1242 3001 
Q 1428 2844 1947 2747 
L 2328 2669 
Q 3034 2534 3370 2195 
Q 3706 1856 3706 1288 
Q 3706 609 3251 259 
Q 2797 -91 1919 -91 
Q 1588 -91 1214 -16 
Q 841 59 441 206 
L 441 856 
Q 825 641 1194 531 
Q 1563 422 1919 422 
Q 2459 422 2753 634 
Q 3047 847 3047 1241 
Q 3047 1584 2836 1778 
Q 2625 1972 2144 2069 
L 1759 2144 
Q 1053 2284 737 2584 
Q 422 2884 422 3419 
Q 422 4038 858 4394 
Q 1294 4750 2059 4750 
Q 2388 4750 2728 4690 
Q 3069 4631 3425 4513 
z
" transform="scale(0.015625)"/>
     </defs>
     <use xlink:href="#DejaVuSans-47"/>
     <use xlink:href="#DejaVuSans-65" transform="translate(77.490234 0)"/>
     <use xlink:href="#DejaVuSans-6e" transform="translate(139.013672 0)"/>
     <use xlink:href="#DejaVuSans-65" transform="translate(202.392578 0)"/>
     <use xlink:href="#DejaVuSans-72" transform="translate(263.916016 0)"/>
     <use xlink:href="#DejaVuSans-61" transform="translate(305.029297 0)"/>
     <use xlink:href="#DejaVuSans-6c" transform="translate(366.308594 0)"/>
     <use xlink:href="#DejaVuSans-69" transform="translate(394.091797 0)"/>
     <use xlink:href="#DejaVuSans-7a" transform="translate(421.875 0)"/>
     <use xlink:href="#DejaVuSans-61" transform="translate(474.365234 0)"/>
     <use xlink:href="#DejaVuSans-62" transform="translate(535.644531 0)"/>
     <use xlink:href="#DejaVuSans-6c" transform="translate(599.121094 0)"/>
     <use xlink:href="#DejaVuSans-65" transform="translate(626.904297 0)"/>
     <use xlink:href="#DejaVuSans-20" transform="translate(688.427734 0)"/>
     <use xlink:href="#DejaVuSans-53" transform="translate(720.214844 0)"/>
     <use xlink:href="#DejaVuSans-6f" transform="translate(783.691406 0)"/>
     <use xlink:href="#DejaVuSans-6c" transform="translate(844.873047 0)"/>
     <use xlink:href="#DejaVuSans-75" transform="translate(872.65625 0)"/>
     <use xlink:href="#DejaVuSans-74" transform="translate(936.035156 0)"/>
     <use xlink:href="#DejaVuSans-69" transform="translate(975.244141 0)"/>
     <use xlink:href="#DejaVuSans-6f" transform="translate(1003.027344 0)"/>
     <use xlink:href="#DejaVuSans-6e" transform="translate(1064.208984 0)"/>
     <use xlink:href="#DejaVuSans-73" transform="translate(1127.587891 0)"/>
    </g>
   </g>
   <g id="text_4">
    <g id="patch_16">
     <path d="M 602.575225 887.816223 
L 746.196944 887.816223 
Q 747.996944 887.816223 747.996944 886.016223 
L 747.996944 877.305911 
Q 747.996944 875.505911 746.196944 875.505911 
L 602.575225 875.505911 
Q 600.775225 875.505911 600.775225 877.305911 
L 600.775225 886.016223 
Q 600.775225 887.816223 602.575225 887.816223 
z
" style="fill: #ffffff; opacity: 0.7"/>
    </g>
    <!-- Cross-disciplinary Team Science -->
    <g transform="translate(602.575225 884.144504) scale(0.09 -0.09)">
     <defs>
      <path id="DejaVuSans-2d" d="M 313 2009 
L 1997 2009 
L 1997 1497 
L 313 1497 
L 313 2009 
z
" transform="scale(0.015625)"/>
      <path id="DejaVuSans-70" d="M 1159 525 
L 1159 -1331 
L 581 -1331 
L 581 3500 
L 1159 3500 
L 1159 2969 
Q 1341 3281 1617 3432 
Q 1894 3584 2278 3584 
Q 2916 3584 3314 3078 
Q 3713 2572 3713 1747 
Q 3713 922 3314 415 
Q 2916 -91 2278 -91 
Q 1894 -91 1617 61 
Q 1341 213 1159 525 
z
M 3116 1747 
Q 3116 2381 2855 2742 
Q 2594 3103 2138 3103 
Q 1681 3103 1420 2742 
Q 1159 2381 1159 1747 
Q 1159 1113 1420 752 
Q 1681 391 2138 391 
Q 2594 391 2855 752 
Q 3116 1113 3116 1747 
z
" transform="scale(0.015625)"/>
      <path id="DejaVuSans-54" d="M -19 4666 
L 3928 4666 
L 3928 4134 
L 2272 4134 
L 2272 0 
L 1638 0 
L 1638 4134 
L -19 4134 
L -19 4666 
z
" transform="scale(0.015625)"/>
     </defs>
     <use xlink:href="#DejaVuSans-43"/>
     <use xlink:href="#DejaVuSans-72" transform="translate(69.824219 0)"/>
     <use xlink:href="#DejaVuSans-6f" transform="translate(108.6875 0)"/>
     <use xlink:href="#DejaVuSans-73" transform="translate(169.869141 0)"/>
     <use xlink:href="#DejaVuSans-73" transform="translate(221.96875 0)"/>
     <use xlink:href="#DejaVuSans-2d" transform="translate(274.068359 0)"/>
     <use xlink:href="#DejaVuSans-64" transform="translate(310.152344 0)"/>
     <use xlink:href="#DejaVuSans-69" transform="translate(373.628906 0)"/>
     <use xlink:href="#DejaVuSans-73" transform="translate(401.412109 0)"/>
     <use xlink:href="#DejaVuSans-63" transform="translate(453.511719 0)"/>
     <use xlink:href="#DejaVuSans-69" transform="translate(508.492188 0)"/>
     <use xlink:href="#DejaVuSans-70" transform="translate(536.275391 0)"/>
     <use xlink:href="#DejaVuSans-6c" transform="translate(599.751953 0)"/>
     <use xlink:href="#DejaVuSans-69" transform="translate(627.535156 0)"/>
     <use xlink:href="#DejaVuSans-6e" transform="translate(655.318359 0)"/>
     <use xlink:href="#DejaVuSans-61" transform="translate(718.697266 0)"/>
     <use xlink:href="#DejaVuSans-72" transform="translate(779.976562 0)"/>
     <use xlink:href="#DejaVuSans-79" transform="translate(821.089844 0)"/>
     <use xlink:href="#DejaVuSans-20" transform="translate(880.269531 0)"/>
     <use xlink:href="#DejaVuSans-54" transform="translate(912.056641 0)"/>
     <use xlink:href="#DejaVuSans-65" transform="translate(956.140625 0)"/>
     <use xlink:href="#DejaVuSans-61" transform="translate(1017.664062 0)"/>
     <use xlink:href="#DejaVuSans-6d" transform="translate(1078.943359 0)"/>
     <use xlink:href="#DejaVuSans-20" transform="translate(1176.355469 0)"/>
     <use xlink:href="#DejaVuSans-53" transform="translate(1208.142578 0)"/>
     <use xlink:href="#DejaVuSans-63" transform="translate(1271.619141 0)"/>
     <use xlink:href="#DejaVuSans-69" transform="translate(1326.599609 0)"/>
     <use xlink:href="#DejaVuSans-65" transform="translate(1354.382812 0)"/>
     <use xlink:href="#DejaVuSans-6e" transform="translate(1415.90625 0)"/>
     <use xlink:href="#DejaVuSans-63" transform="translate(1479.285156 0)"/>
     <use xlink:href="#DejaVuSans-65" transform="translate(1534.265625 0)"/>
    </g>
   </g>
   <g id="text_5">
    <g id="patch_17">
     <path d="M 234.605156 1654.590685 
L 328.964531 1654.590685 
Q 330.764531 1654.590685 330.764531 1652.790685 
L 330.764531 1644.080372 
Q 330.764531 1642.280372 328.964531 1642.280372 
L 234.605156 1642.280372 
Q 232.805156 1642.280372 232.805156 1644.080372 
L 232.805156 1652.790685 
Q 232.805156 1654.590685 234.605156 1654.590685 
z
" style="fill: #ffffff; opacity: 0.7"/>
    </g>
    <!-- Efficiency and Speed -->
    <g transform="translate(234.605156 1650.918966) scale(0.09 -0.09)">
     <defs>
      <path id="DejaVuSans-45" d="M 628 4666 
L 3578 4666 
L 3578 4134 
L 1259 4134 
L 1259 2753 
L 3481 2753 
L 3481 2222 
L 1259 2222 
L 1259 531 
L 3634 531 
L 3634 0 
L 628 0 
L 628 4666 
z
" transform="scale(0.015625)"/>
      <path id="DejaVuSans-66" d="M 2375 4863 
L 2375 4384 
L 1825 4384 
Q 1516 4384 1395 4259 
Q 1275 4134 1275 3809 
L 1275 3500 
L 2222 3500 
L 2222 3053 
L 1275 3053 
L 1275 0 
L 697 0 
L 697 3053 
L 147 3053 
L 147 3500 
L 697 3500 
L 697 3744 
Q 697 4328 969 4595 
Q 1241 4863 1831 4863 
L 2375 4863 
z
" transform="scale(0.015625)"/>
     </defs>
     <use xlink:href="#DejaVuSans-45"/>
     <use xlink:href="#DejaVuSans-66" transform="translate(63.183594 0)"/>
     <use xlink:href="#DejaVuSans-66" transform="translate(98.388672 0)"/>
     <use xlink:href="#DejaVuSans-69" transform="translate(133.59375 0)"/>
     <use xlink:href="#DejaVuSans-63" transform="translate(161.376953 0)"/>
     <use xlink:href="#DejaVuSans-69" transform="translate(216.357422 0)"/>
     <use xlink:href="#DejaVuSans-65" transform="translate(244.140625 0)"/>
     <use xlink:href="#DejaVuSans-6e" transform="translate(305.664062 0)"/>
     <use xlink:href="#DejaVuSans-63" transform="translate(369.042969 0)"/>
     <use xlink:href="#DejaVuSans-79" transform="translate(424.023438 0)"/>
     <use xlink:href="#DejaVuSans-20" transform="translate(483.203125 0)"/>
     <use xlink:href="#DejaVuSans-61" transform="translate(514.990234 0)"/>
     <use xlink:href="#DejaVuSans-6e" transform="translate(576.269531 0)"/>
     <use xlink:href="#DejaVuSans-64" transform="translate(639.648438 0)"/>
     <use xlink:href="#DejaVuSans-20" transform="translate(703.125 0)"/>
     <use xlink:href="#DejaVuSans-53" transform="translate(734.912109 0)"/>
     <use xlink:href="#DejaVuSans-70" transform="translate(798.388672 0)"/>
     <use xlink:href="#DejaVuSans-65" transform="translate(861.865234 0)"/>
     <use xlink:href="#DejaVuSans-65" transform="translate(923.388672 0)"/>
     <use xlink:href="#DejaVuSans-64" transform="translate(984.912109 0)"/>
    </g>
   </g>
   <g id="text_6">
    <g id="patch_18">
     <path d="M 603.114522 2421.365147 
L 745.657647 2421.365147 
Q 747.457647 2421.365147 747.457647 2419.565147 
L 747.457647 2410.854834 
Q 747.457647 2409.054834 745.657647 2409.054834 
L 603.114522 2409.054834 
Q 601.314522 2409.054834 601.314522 2410.854834 
L 601.314522 2419.565147 
Q 601.314522 2421.365147 603.114522 2421.365147 
z
" style="fill: #ffffff; opacity: 0.7"/>
    </g>
    <!-- Boundary-crossing Partnerships -->
    <g transform="translate(603.114522 2417.693428) scale(0.09 -0.09)">
     <defs>
      <path id="DejaVuSans-42" d="M 1259 2228 
L 1259 519 
L 2272 519 
Q 2781 519 3026 730 
Q 3272 941 3272 1375 
Q 3272 1813 3026 2020 
Q 2781 2228 2272 2228 
L 1259 2228 
z
M 1259 4147 
L 1259 2741 
L 2194 2741 
Q 2656 2741 2882 2914 
Q 3109 3088 3109 3444 
Q 3109 3797 2882 3972 
Q 2656 4147 2194 4147 
L 1259 4147 
z
M 628 4666 
L 2241 4666 
Q 2963 4666 3353 4366 
Q 3744 4066 3744 3513 
Q 3744 3084 3544 2831 
Q 3344 2578 2956 2516 
Q 3422 2416 3680 2098 
Q 3938 1781 3938 1306 
Q 3938 681 3513 340 
Q 3088 0 2303 0 
L 628 0 
L 628 4666 
z
" transform="scale(0.015625)"/>
      <path id="DejaVuSans-67" d="M 2906 1791 
Q 2906 2416 2648 2759 
Q 2391 3103 1925 3103 
Q 1463 3103 1205 2759 
Q 947 2416 947 1791 
Q 947 1169 1205 825 
Q 1463 481 1925 481 
Q 2391 481 2648 825 
Q 2906 1169 2906 1791 
z
M 3481 434 
Q 3481 -459 3084 -895 
Q 2688 -1331 1869 -1331 
Q 1566 -1331 1297 -1286 
Q 1028 -1241 775 -1147 
L 775 -588 
Q 1028 -725 1275 -790 
Q 1522 -856 1778 -856 
Q 2344 -856 2625 -561 
Q 2906 -266 2906 331 
L 2906 616 
Q 2728 306 2450 153 
Q 2172 0 1784 0 
Q 1141 0 747 490 
Q 353 981 353 1791 
Q 353 2603 747 3093 
Q 1141 3584 1784 3584 
Q 2172 3584 2450 3431 
Q 2728 3278 2906 2969 
L 2906 3500 
L 3481 3500 
L 3481 434 
z
" transform="scale(0.015625)"/>
      <path id="DejaVuSans-50" d="M 1259 4147 
L 1259 2394 
L 2053 2394 
Q 2494 2394 2734 2622 
Q 2975 2850 2975 3272 
Q 2975 3691 2734 3919 
Q 2494 4147 2053 4147 
L 1259 4147 
z
M 628 4666 
L 2053 4666 
Q 2838 4666 3239 4311 
Q 3641 3956 3641 3272 
Q 3641 2581 3239 2228 
Q 2838 1875 2053 1875 
L 1259 1875 
L 1259 0 
L 628 0 
L 628 4666 
z
" transform="scale(0.015625)"/>
      <path id="DejaVuSans-68" d="M 3513 2113 
L 3513 0 
L 2938 0 
L 2938 2094 
Q 2938 2591 2744 2837 
Q 2550 3084 2163 3084 
Q 1697 3084 1428 2787 
Q 1159 2491 1159 1978 
L 1159 0 
L 581 0 
L 581 4863 
L 1159 4863 
L 1159 2956 
Q 1366 3272 1645 3428 
Q 1925 3584 2291 3584 
Q 2894 3584 3203 3211 
Q 3513 2838 3513 2113 
z
" transform="scale(0.015625)"/>
     </defs>
     <use xlink:href="#DejaVuSans-42"/>
     <use xlink:href="#DejaVuSans-6f" transform="translate(68.603516 0)"/>
     <use xlink:href="#DejaVuSans-75" transform="translate(129.785156 0)"/>
     <use xlink:href="#DejaVuSans-6e" transform="translate(193.164062 0)"/>
     <use xlink:href="#DejaVuSans-64" transform="translate(256.542969 0)"/>
     <use xlink:href="#DejaVuSans-61" transform="translate(320.019531 0)"/>
     <use xlink:href="#DejaVuSans-72" transform="translate(381.298828 0)"/>
     <use xlink:href="#DejaVuSans-79" transform="translate(422.412109 0)"/>
     <use xlink:href="#DejaVuSans-2d" transform="translate(479.841797 0)"/>
     <use xlink:href="#DejaVuSans-63" transform="translate(515.925781 0)"/>
     <use xlink:href="#DejaVuSans-72" transform="translate(570.90625 0)"/>
     <use xlink:href="#DejaVuSans-6f" transform="translate(609.769531 0)"/>
     <use xlink:href="#DejaVuSans-73" transform="translate(670.951172 0)"/>
     <use xlink:href="#DejaVuSans-73" transform="translate(723.050781 0)"/>
     <use xlink:href="#DejaVuSans-69" transform="translate(775.150391 0)"/>
     <use xlink:href="#DejaVuSans-6e" transform="translate(802.933594 0)"/>
     <use xlink:href="#DejaVuSans-67" transform="translate(866.3125 0)"/>
     <use xlink:href="#DejaVuSans-20" transform="translate(929.789062 0)"/>
     <use xlink:href="#DejaVuSans-50" transform="translate(961.576172 0)"/>
     <use xlink:href="#DejaVuSans-61" transform="translate(1017.378906 0)"/>
     <use xlink:href="#DejaVuSans-72" transform="translate(1078.658203 0)"/>
     <use xlink:href="#DejaVuSans-74" transform="translate(1119.771484 0)"/>
     <use xlink:href="#DejaVuSans-6e" transform="translate(1158.980469 0)"/>
     <use xlink:href="#DejaVuSans-65" transform="translate(1222.359375 0)"/>
     <use xlink:href="#DejaVuSans-72" transform="translate(1283.882812 0)"/>
     <use xlink:href="#DejaVuSans-73" transform="translate(1324.996094 0)"/>
     <use xlink:href="#DejaVuSans-68" transform="translate(1377.095703 0)"/>
     <use xlink:href="#DejaVuSans-69" transform="translate(1440.474609 0)"/>
     <use xlink:href="#DejaVuSans-70" transform="translate(1468.257812 0)"/>
     <use xlink:href="#DejaVuSans-73" transform="translate(1531.734375 0)"/>
    </g>
   </g>
   <g id="text_7">
    <g id="patch_19">
     <path d="M 1571.658319 2734.554716 
L 1699.506131 2734.554716 
Q 1701.306131 2734.554716 1701.306131 2732.754716 
L 1701.306131 2724.044403 
Q 1701.306131 2722.244403 1699.506131 2722.244403 
L 1571.658319 2722.244403 
Q 1569.858319 2722.244403 1569.858319 2724.044403 
L 1569.858319 2732.754716 
Q 1569.858319 2734.554716 1571.658319 2734.554716 
z
" style="fill: #ffffff; opacity: 0.7"/>
    </g>
    <!-- Bold &amp; Rigorous Approaches -->
    <g transform="translate(1571.658319 2730.882997) scale(0.09 -0.09)">
     <defs>
      <path id="DejaVuSans-52" d="M 2841 2188 
Q 3044 2119 3236 1894 
Q 3428 1669 3622 1275 
L 4263 0 
L 3584 0 
L 2988 1197 
Q 2756 1666 2539 1819 
Q 2322 1972 1947 1972 
L 1259 1972 
L 1259 0 
L 628 0 
L 628 4666 
L 2053 4666 
Q 2853 4666 3247 4331 
Q 3641 3997 3641 3322 
Q 3641 2881 3436 2590 
Q 3231 2300 2841 2188 
z
M 1259 4147 
L 1259 2491 
L 2053 2491 
Q 2509 2491 2742 2702 
Q 2975 2913 2975 3322 
Q 2975 3731 2742 3939 
Q 2509 4147 2053 4147 
L 1259 4147 
z
" transform="scale(0.015625)"/>
      <path id="DejaVuSans-41" d="M 2188 4044 
L 1331 1722 
L 3047 1722 
L 2188 4044 
z
M 1831 4666 
L 2547 4666 
L 4325 0 
L 3669 0 
L 3244 1197 
L 1141 1197 
L 716 0 
L 50 0 
L 1831 4666 
z
" transform="scale(0.015625)"/>
     </defs>
     <use xlink:href="#DejaVuSans-42"/>
     <use xlink:href="#DejaVuSans-6f" transform="translate(68.603516 0)"/>
     <use xlink:href="#DejaVuSans-6c" transform="translate(129.785156 0)"/>
     <use xlink:href="#DejaVuSans-64" transform="translate(157.568359 0)"/>
     <use xlink:href="#DejaVuSans-20" transform="translate(221.044922 0)"/>
     <use xlink:href="#DejaVuSans-26" transform="translate(252.832031 0)"/>
     <use xlink:href="#DejaVuSans-20" transform="translate(330.810547 0)"/>
     <use xlink:href="#DejaVuSans-52" transform="translate(362.597656 0)"/>
     <use xlink:href="#DejaVuSans-69" transform="translate(432.080078 0)"/>
     <use xlink:href="#DejaVuSans-67" transform="translate(459.863281 0)"/>
     <use xlink:href="#DejaVuSans-6f" transform="translate(523.339844 0)"/>
     <use xlink:href="#DejaVuSans-72" transform="translate(584.521484 0)"/>
     <use xlink:href="#DejaVuSans-6f" transform="translate(623.384766 0)"/>
     <use xlink:href="#DejaVuSans-75" transform="translate(684.566406 0)"/>
     <use xlink:href="#DejaVuSans-73" transform="translate(747.945312 0)"/>
     <use xlink:href="#DejaVuSans-20" transform="translate(800.044922 0)"/>
     <use xlink:href="#DejaVuSans-41" transform="translate(831.832031 0)"/>
     <use xlink:href="#DejaVuSans-70" transform="translate(900.240234 0)"/>
     <use xlink:href="#DejaVuSans-70" transform="translate(963.716797 0)"/>
     <use xlink:href="#DejaVuSans-72" transform="translate(1027.193359 0)"/>
     <use xlink:href="#DejaVuSans-6f" transform="translate(1066.056641 0)"/>
     <use xlink:href="#DejaVuSans-61" transform="translate(1127.238281 0)"/>
     <use xlink:href="#DejaVuSans-63" transform="translate(1188.517578 0)"/>
     <use xlink:href="#DejaVuSans-68" transform="translate(1243.498047 0)"/>
     <use xlink:href="#DejaVuSans-65" transform="translate(1306.876953 0)"/>
     <use xlink:href="#DejaVuSans-73" transform="translate(1368.400391 0)"/>
    </g>
   </g>
   <g id="text_8">
    <g id="patch_20">
     <path d="M 2519.221569 2421.365147 
L 2674.335163 2421.365147 
Q 2676.135163 2421.365147 2676.135163 2419.565147 
L 2676.135163 2410.854834 
Q 2676.135163 2409.054834 2674.335163 2409.054834 
L 2519.221569 2409.054834 
Q 2517.421569 2409.054834 2517.421569 2410.854834 
L 2517.421569 2419.565147 
Q 2517.421569 2421.365147 2519.221569 2421.365147 
z
" style="fill: #ffffff; opacity: 0.7"/>
    </g>
    <!-- Diversity, Equity, and Accessibility -->
    <g transform="translate(2519.221569 2417.693428) scale(0.09 -0.09)">
     <defs>
      <path id="DejaVuSans-44" d="M 1259 4147 
L 1259 519 
L 2022 519 
Q 2988 519 3436 956 
Q 3884 1394 3884 2338 
Q 3884 3275 3436 3711 
Q 2988 4147 2022 4147 
L 1259 4147 
z
M 628 4666 
L 1925 4666 
Q 3281 4666 3915 4102 
Q 4550 3538 4550 2338 
Q 4550 1131 3912 565 
Q 3275 0 1925 0 
L 628 0 
L 628 4666 
z
" transform="scale(0.015625)"/>
      <path id="DejaVuSans-2c" d="M 750 794 
L 1409 794 
L 1409 256 
L 897 -744 
L 494 -744 
L 750 256 
L 750 794 
z
" transform="scale(0.015625)"/>
      <path id="DejaVuSans-71" d="M 947 1747 
Q 947 1113 1208 752 
Q 1469 391 1925 391 
Q 2381 391 2643 752 
Q 2906 1113 2906 1747 
Q 2906 2381 2643 2742 
Q 2381 3103 1925 3103 
Q 1469 3103 1208 2742 
Q 947 2381 947 1747 
z
M 2906 525 
Q 2725 213 2448 61 
Q 2172 -91 1784 -91 
Q 1150 -91 751 415 
Q 353 922 353 1747 
Q 353 2572 751 3078 
Q 1150 3584 1784 3584 
Q 2172 3584 2448 3432 
Q 2725 3281 2906 2969 
L 2906 3500 
L 3481 3500 
L 3481 -1331 
L 2906 -1331 
L 2906 525 
z
" transform="scale(0.015625)"/>
     </defs>
     <use xlink:href="#DejaVuSans-44"/>
     <use xlink:href="#DejaVuSans-69" transform="translate(77.001953 0)"/>
     <use xlink:href="#DejaVuSans-76" transform="translate(104.785156 0)"/>
     <use xlink:href="#DejaVuSans-65" transform="translate(163.964844 0)"/>
     <use xlink:href="#DejaVuSans-72" transform="translate(225.488281 0)"/>
     <use xlink:href="#DejaVuSans-73" transform="translate(266.601562 0)"/>
     <use xlink:href="#DejaVuSans-69" transform="translate(318.701172 0)"/>
     <use xlink:href="#DejaVuSans-74" transform="translate(346.484375 0)"/>
     <use xlink:href="#DejaVuSans-79" transform="translate(385.693359 0)"/>
     <use xlink:href="#DejaVuSans-2c" transform="translate(444.873047 0)"/>
     <use xlink:href="#DejaVuSans-20" transform="translate(476.660156 0)"/>
     <use xlink:href="#DejaVuSans-45" transform="translate(508.447266 0)"/>
     <use xlink:href="#DejaVuSans-71" transform="translate(571.630859 0)"/>
     <use xlink:href="#DejaVuSans-75" transform="translate(635.107422 0)"/>
     <use xlink:href="#DejaVuSans-69" transform="translate(698.486328 0)"/>
     <use xlink:href="#DejaVuSans-74" transform="translate(726.269531 0)"/>
     <use xlink:href="#DejaVuSans-79" transform="translate(765.478516 0)"/>
     <use xlink:href="#DejaVuSans-2c" transform="translate(824.658203 0)"/>
     <use xlink:href="#DejaVuSans-20" transform="translate(856.445312 0)"/>
     <use xlink:href="#DejaVuSans-61" transform="translate(888.232422 0)"/>
     <use xlink:href="#DejaVuSans-6e" transform="translate(949.511719 0)"/>
     <use xlink:href="#DejaVuSans-64" transform="translate(1012.890625 0)"/>
     <use xlink:href="#DejaVuSans-20" transform="translate(1076.367188 0)"/>
     <use xlink:href="#DejaVuSans-41" transform="translate(1108.154297 0)"/>
     <use xlink:href="#DejaVuSans-63" transform="translate(1174.8125 0)"/>
     <use xlink:href="#DejaVuSans-63" transform="translate(1229.792969 0)"/>
     <use xlink:href="#DejaVuSans-65" transform="translate(1284.773438 0)"/>
     <use xlink:href="#DejaVuSans-73" transform="translate(1346.296875 0)"/>
     <use xlink:href="#DejaVuSans-73" transform="translate(1398.396484 0)"/>
     <use xlink:href="#DejaVuSans-69" transform="translate(1450.496094 0)"/>
     <use xlink:href="#DejaVuSans-62" transform="translate(1478.279297 0)"/>
     <use xlink:href="#DejaVuSans-69" transform="translate(1541.755859 0)"/>
     <use xlink:href="#DejaVuSans-6c" transform="translate(1569.539062 0)"/>
     <use xlink:href="#DejaVuSans-69" transform="translate(1597.322266 0)"/>
     <use xlink:href="#DejaVuSans-74" transform="translate(1625.105469 0)"/>
     <use xlink:href="#DejaVuSans-79" transform="translate(1664.314453 0)"/>
    </g>
   </g>
   <g id="text_9">
    <!-- 2002.0 -->
    <g transform="translate(1579.385613 1646.771779) scale(0.08 -0.08)">
     <defs>
      <path id="DejaVuSans-32" d="M 1228 531 
L 3431 531 
L 3431 0 
L 469 0 
L 469 531 
Q 828 903 1448 1529 
Q 2069 2156 2228 2338 
Q 2531 2678 2651 2914 
Q 2772 3150 2772 3378 
Q 2772 3750 2511 3984 
Q 2250 4219 1831 4219 
Q 1534 4219 1204 4116 
Q 875 4013 500 3803 
L 500 4441 
Q 881 4594 1212 4672 
Q 1544 4750 1819 4750 
Q 2544 4750 2975 4387 
Q 3406 4025 3406 3419 
Q 3406 3131 3298 2873 
Q 3191 2616 2906 2266 
Q 2828 2175 2409 1742 
Q 1991 1309 1228 531 
z
" transform="scale(0.015625)"/>
      <path id="DejaVuSans-30" d="M 2034 4250 
Q 1547 4250 1301 3770 
Q 1056 3291 1056 2328 
Q 1056 1369 1301 889 
Q 1547 409 2034 409 
Q 2525 409 2770 889 
Q 3016 1369 3016 2328 
Q 3016 3291 2770 3770 
Q 2525 4250 2034 4250 
z
M 2034 4750 
Q 2819 4750 3233 4129 
Q 3647 3509 3647 2328 
Q 3647 1150 3233 529 
Q 2819 -91 2034 -91 
Q 1250 -91 836 529 
Q 422 1150 422 2328 
Q 422 3509 836 4129 
Q 1250 4750 2034 4750 
z
" transform="scale(0.015625)"/>
      <path id="DejaVuSans-2e" d="M 684 794 
L 1344 794 
L 1344 0 
L 684 0 
L 684 794 
z
" transform="scale(0.015625)"/>
     </defs>
     <use xlink:href="#DejaVuSans-32"/>
     <use xlink:href="#DejaVuSans-30" transform="translate(63.623047 0)"/>
     <use xlink:href="#DejaVuSans-30" transform="translate(127.246094 0)"/>
     <use xlink:href="#DejaVuSans-32" transform="translate(190.869141 0)"/>
     <use xlink:href="#DejaVuSans-2e" transform="translate(254.492188 0)"/>
     <use xlink:href="#DejaVuSans-30" transform="translate(286.279297 0)"/>
    </g>
   </g>
   <g id="text_10">
    <!-- 2025.0 -->
    <g transform="translate(1607.378113 1646.771779) scale(0.08 -0.08)">
     <defs>
      <path id="DejaVuSans-35" d="M 691 4666 
L 3169 4666 
L 3169 4134 
L 1269 4134 
L 1269 2991 
Q 1406 3038 1543 3061 
Q 1681 3084 1819 3084 
Q 2600 3084 3056 2656 
Q 3513 2228 3513 1497 
Q 3513 744 3044 326 
Q 2575 -91 1722 -91 
Q 1428 -91 1123 -41 
Q 819 9 494 109 
L 494 744 
Q 775 591 1075 516 
Q 1375 441 1709 441 
Q 2250 441 2565 725 
Q 2881 1009 2881 1497 
Q 2881 1984 2565 2268 
Q 2250 2553 1709 2553 
Q 1456 2553 1204 2497 
Q 953 2441 691 2322 
L 691 4666 
z
" transform="scale(0.015625)"/>
     </defs>
     <use xlink:href="#DejaVuSans-32"/>
     <use xlink:href="#DejaVuSans-30" transform="translate(63.623047 0)"/>
     <use xlink:href="#DejaVuSans-32" transform="translate(127.246094 0)"/>
     <use xlink:href="#DejaVuSans-35" transform="translate(190.869141 0)"/>
     <use xlink:href="#DejaVuSans-2e" transform="translate(254.492188 0)"/>
     <use xlink:href="#DejaVuSans-30" transform="translate(286.279297 0)"/>
    </g>
   </g>
   <g id="text_11">
    <!-- Translational Octagon  Drift/Growth by Year -->
    <g transform="translate(1499.769412 340.478692) scale(0.12 -0.12)">
     <defs>
      <path id="DejaVuSans-4f" d="M 2522 4238 
Q 1834 4238 1429 3725 
Q 1025 3213 1025 2328 
Q 1025 1447 1429 934 
Q 1834 422 2522 422 
Q 3209 422 3611 934 
Q 4013 1447 4013 2328 
Q 4013 3213 3611 3725 
Q 3209 4238 2522 4238 
z
M 2522 4750 
Q 3503 4750 4090 4092 
Q 4678 3434 4678 2328 
Q 4678 1225 4090 567 
Q 3503 -91 2522 -91 
Q 1538 -91 948 565 
Q 359 1222 359 2328 
Q 359 3434 948 4092 
Q 1538 4750 2522 4750 
z
" transform="scale(0.015625)"/>
      <path id="DejaVuSans-2014" d="M 313 1978 
L 6088 1978 
L 6088 1528 
L 313 1528 
L 313 1978 
z
" transform="scale(0.015625)"/>
      <path id="DejaVuSans-2f" d="M 1625 4666 
L 2156 4666 
L 531 -594 
L 0 -594 
L 1625 4666 
z
" transform="scale(0.015625)"/>
      <path id="DejaVuSans-77" d="M 269 3500 
L 844 3500 
L 1563 769 
L 2278 3500 
L 2956 3500 
L 3675 769 
L 4391 3500 
L 4966 3500 
L 4050 0 
L 3372 0 
L 2619 2869 
L 1863 0 
L 1184 0 
L 269 3500 
z
" transform="scale(0.015625)"/>
      <path id="DejaVuSans-59" d="M -13 4666 
L 666 4666 
L 1959 2747 
L 3244 4666 
L 3922 4666 
L 2272 2222 
L 2272 0 
L 1638 0 
L 1638 2222 
L -13 4666 
z
" transform="scale(0.015625)"/>
     </defs>
     <use xlink:href="#DejaVuSans-54"/>
     <use xlink:href="#DejaVuSans-72" transform="translate(46.333984 0)"/>
     <use xlink:href="#DejaVuSans-61" transform="translate(87.447266 0)"/>
     <use xlink:href="#DejaVuSans-6e" transform="translate(148.726562 0)"/>
     <use xlink:href="#DejaVuSans-73" transform="translate(212.105469 0)"/>
     <use xlink:href="#DejaVuSans-6c" transform="translate(264.205078 0)"/>
     <use xlink:href="#DejaVuSans-61" transform="translate(291.988281 0)"/>
     <use xlink:href="#DejaVuSans-74" transform="translate(353.267578 0)"/>
     <use xlink:href="#DejaVuSans-69" transform="translate(392.476562 0)"/>
     <use xlink:href="#DejaVuSans-6f" transform="translate(420.259766 0)"/>
     <use xlink:href="#DejaVuSans-6e" transform="translate(481.441406 0)"/>
     <use xlink:href="#DejaVuSans-61" transform="translate(544.820312 0)"/>
     <use xlink:href="#DejaVuSans-6c" transform="translate(606.099609 0)"/>
     <use xlink:href="#DejaVuSans-20" transform="translate(633.882812 0)"/>
     <use xlink:href="#DejaVuSans-4f" transform="translate(665.669922 0)"/>
     <use xlink:href="#DejaVuSans-63" transform="translate(744.380859 0)"/>
     <use xlink:href="#DejaVuSans-74" transform="translate(799.361328 0)"/>
     <use xlink:href="#DejaVuSans-61" transform="translate(838.570312 0)"/>
     <use xlink:href="#DejaVuSans-67" transform="translate(899.849609 0)"/>
     <use xlink:href="#DejaVuSans-6f" transform="translate(963.326172 0)"/>
     <use xlink:href="#DejaVuSans-6e" transform="translate(1024.507812 0)"/>
     <use xlink:href="#DejaVuSans-20" transform="translate(1087.886719 0)"/>
     <use xlink:href="#DejaVuSans-2014" transform="translate(1119.673828 0)"/>
     <use xlink:href="#DejaVuSans-20" transform="translate(1219.673828 0)"/>
     <use xlink:href="#DejaVuSans-44" transform="translate(1251.460938 0)"/>
     <use xlink:href="#DejaVuSans-72" transform="translate(1328.462891 0)"/>
     <use xlink:href="#DejaVuSans-69" transform="translate(1369.576172 0)"/>
     <use xlink:href="#DejaVuSans-66" transform="translate(1397.359375 0)"/>
     <use xlink:href="#DejaVuSans-74" transform="translate(1430.814453 0)"/>
     <use xlink:href="#DejaVuSans-2f" transform="translate(1470.023438 0)"/>
     <use xlink:href="#DejaVuSans-47" transform="translate(1503.714844 0)"/>
     <use xlink:href="#DejaVuSans-72" transform="translate(1581.205078 0)"/>
     <use xlink:href="#DejaVuSans-6f" transform="translate(1620.068359 0)"/>
     <use xlink:href="#DejaVuSans-77" transform="translate(1681.25 0)"/>
     <use xlink:href="#DejaVuSans-74" transform="translate(1763.037109 0)"/>
     <use xlink:href="#DejaVuSans-68" transform="translate(1802.246094 0)"/>
     <use xlink:href="#DejaVuSans-20" transform="translate(1865.625 0)"/>
     <use xlink:href="#DejaVuSans-62" transform="translate(1897.412109 0)"/>
     <use xlink:href="#DejaVuSans-79" transform="translate(1960.888672 0)"/>
     <use xlink:href="#DejaVuSans-20" transform="translate(2020.068359 0)"/>
     <use xlink:href="#DejaVuSans-59" transform="translate(2051.855469 0)"/>
     <use xlink:href="#DejaVuSans-65" transform="translate(2099.689453 0)"/>
     <use xlink:href="#DejaVuSans-61" transform="translate(2161.212891 0)"/>
     <use xlink:href="#DejaVuSans-72" transform="translate(2222.492188 0)"/>
    </g>
   </g>
   <g id="PathCollection_2">
    <defs>
     <path id="C0_0_34809a3316" d="M 0 3.162278 
C 0.838646 3.162278 1.643056 2.82908 2.236068 2.236068 
C 2.82908 1.643056 3.162278 0.838646 3.162278 -0 
C 3.162278 -0.838646 2.82908 -1.643056 2.236068 -2.236068 
C 1.643056 -2.82908 0.838646 -3.162278 0 -3.162278 
C -0.838646 -3.162278 -1.643056 -2.82908 -2.236068 -2.236068 
C -2.82908 -1.643056 -3.162278 -0.838646 -3.162278 0 
C -3.162278 0.838646 -2.82908 1.643056 -2.236068 2.236068 
C -1.643056 2.82908 -0.838646 3.162278 0 3.162278 
z
"/>
    </defs>
    <g clip-path="url(#p05f4f5cc1f)">
     <use xlink:href="#C0_0_34809a3316" x="1607.378113" y="1648.435529" style="fill: #2ca02c; stroke: #2ca02c"/>
    </g>
    <g clip-path="url(#p05f4f5cc1f)">
     <use xlink:href="#C0_0_34809a3316" x="1607.378113" y="1648.435529" style="fill: #d62728; stroke: #d62728"/>
    </g>
   </g>
   <g id="legend_1">
    <g id="patch_21">
     <path d="M 3332.121357 536.616192 
L 3430.327607 536.616192 
Q 3432.327607 536.616192 3432.327607 534.616192 
L 3432.327607 359.478692 
Q 3432.327607 357.478692 3430.327607 357.478692 
L 3332.121357 357.478692 
Q 3330.121357 357.478692 3330.121357 359.478692 
L 3330.121357 534.616192 
Q 3330.121357 536.616192 3332.121357 536.616192 
z
" style="fill: #ffffff; opacity: 0.8; stroke: #cccccc; stroke-linejoin: miter"/>
    </g>
    <g id="line2d_26">
     <path d="M 3334.121357 365.577129 
L 3344.121357 365.577129 
L 3354.121357 365.577129 
" style="fill: none; stroke: #1f77b4; stroke-width: 2; stroke-linecap: square"/>
    </g>
    <g id="text_12">
     <!-- 2002.0 -->
     <g transform="translate(3362.121357 369.077129) scale(0.1 -0.1)">
      <use xlink:href="#DejaVuSans-32"/>
      <use xlink:href="#DejaVuSans-30" transform="translate(63.623047 0)"/>
      <use xlink:href="#DejaVuSans-30" transform="translate(127.246094 0)"/>
      <use xlink:href="#DejaVuSans-32" transform="translate(190.869141 0)"/>
      <use xlink:href="#DejaVuSans-2e" transform="translate(254.492188 0)"/>
      <use xlink:href="#DejaVuSans-30" transform="translate(286.279297 0)"/>
     </g>
    </g>
    <g id="line2d_27">
     <path d="M 3334.121357 380.255254 
L 3344.121357 380.255254 
L 3354.121357 380.255254 
" style="fill: none; stroke: #ff7f0e; stroke-width: 2; stroke-linecap: square"/>
    </g>
    <g id="text_13">
     <!-- 2012.0 -->
     <g transform="translate(3362.121357 383.755254) scale(0.1 -0.1)">
      <defs>
       <path id="DejaVuSans-31" d="M 794 531 
L 1825 531 
L 1825 4091 
L 703 3866 
L 703 4441 
L 1819 4666 
L 2450 4666 
L 2450 531 
L 3481 531 
L 3481 0 
L 794 0 
L 794 531 
z
" transform="scale(0.015625)"/>
      </defs>
      <use xlink:href="#DejaVuSans-32"/>
      <use xlink:href="#DejaVuSans-30" transform="translate(63.623047 0)"/>
      <use xlink:href="#DejaVuSans-31" transform="translate(127.246094 0)"/>
      <use xlink:href="#DejaVuSans-32" transform="translate(190.869141 0)"/>
      <use xlink:href="#DejaVuSans-2e" transform="translate(254.492188 0)"/>
      <use xlink:href="#DejaVuSans-30" transform="translate(286.279297 0)"/>
     </g>
    </g>
    <g id="line2d_28">
     <path d="M 3334.121357 394.933379 
L 3344.121357 394.933379 
L 3354.121357 394.933379 
" style="fill: none; stroke: #2ca02c; stroke-width: 2; stroke-linecap: square"/>
    </g>
    <g id="text_14">
     <!-- 2014.0 -->
     <g transform="translate(3362.121357 398.433379) scale(0.1 -0.1)">
      <defs>
       <path id="DejaVuSans-34" d="M 2419 4116 
L 825 1625 
L 2419 1625 
L 2419 4116 
z
M 2253 4666 
L 3047 4666 
L 3047 1625 
L 3713 1625 
L 3713 1100 
L 3047 1100 
L 3047 0 
L 2419 0 
L 2419 1100 
L 313 1100 
L 313 1709 
L 2253 4666 
z
" transform="scale(0.015625)"/>
      </defs>
      <use xlink:href="#DejaVuSans-32"/>
      <use xlink:href="#DejaVuSans-30" transform="translate(63.623047 0)"/>
      <use xlink:href="#DejaVuSans-31" transform="translate(127.246094 0)"/>
      <use xlink:href="#DejaVuSans-34" transform="translate(190.869141 0)"/>
      <use xlink:href="#DejaVuSans-2e" transform="translate(254.492188 0)"/>
      <use xlink:href="#DejaVuSans-30" transform="translate(286.279297 0)"/>
     </g>
    </g>
    <g id="line2d_29">
     <path d="M 3334.121357 409.611504 
L 3344.121357 409.611504 
L 3354.121357 409.611504 
" style="fill: none; stroke: #d62728; stroke-width: 2; stroke-linecap: square"/>
    </g>
    <g id="text_15">
     <!-- 2016.0 -->
     <g transform="translate(3362.121357 413.111504) scale(0.1 -0.1)">
      <defs>
       <path id="DejaVuSans-36" d="M 2113 2584 
Q 1688 2584 1439 2293 
Q 1191 2003 1191 1497 
Q 1191 994 1439 701 
Q 1688 409 2113 409 
Q 2538 409 2786 701 
Q 3034 994 3034 1497 
Q 3034 2003 2786 2293 
Q 2538 2584 2113 2584 
z
M 3366 4563 
L 3366 3988 
Q 3128 4100 2886 4159 
Q 2644 4219 2406 4219 
Q 1781 4219 1451 3797 
Q 1122 3375 1075 2522 
Q 1259 2794 1537 2939 
Q 1816 3084 2150 3084 
Q 2853 3084 3261 2657 
Q 3669 2231 3669 1497 
Q 3669 778 3244 343 
Q 2819 -91 2113 -91 
Q 1303 -91 875 529 
Q 447 1150 447 2328 
Q 447 3434 972 4092 
Q 1497 4750 2381 4750 
Q 2619 4750 2861 4703 
Q 3103 4656 3366 4563 
z
" transform="scale(0.015625)"/>
      </defs>
      <use xlink:href="#DejaVuSans-32"/>
      <use xlink:href="#DejaVuSans-30" transform="translate(63.623047 0)"/>
      <use xlink:href="#DejaVuSans-31" transform="translate(127.246094 0)"/>
      <use xlink:href="#DejaVuSans-36" transform="translate(190.869141 0)"/>
      <use xlink:href="#DejaVuSans-2e" transform="translate(254.492188 0)"/>
      <use xlink:href="#DejaVuSans-30" transform="translate(286.279297 0)"/>
     </g>
    </g>
    <g id="line2d_30">
     <path d="M 3334.121357 424.289629 
L 3344.121357 424.289629 
L 3354.121357 424.289629 
" style="fill: none; stroke: #9467bd; stroke-width: 2; stroke-linecap: square"/>
    </g>
    <g id="text_16">
     <!-- 2017.0 -->
     <g transform="translate(3362.121357 427.789629) scale(0.1 -0.1)">
      <defs>
       <path id="DejaVuSans-37" d="M 525 4666 
L 3525 4666 
L 3525 4397 
L 1831 0 
L 1172 0 
L 2766 4134 
L 525 4134 
L 525 4666 
z
" transform="scale(0.015625)"/>
      </defs>
      <use xlink:href="#DejaVuSans-32"/>
      <use xlink:href="#DejaVuSans-30" transform="translate(63.623047 0)"/>
      <use xlink:href="#DejaVuSans-31" transform="translate(127.246094 0)"/>
      <use xlink:href="#DejaVuSans-37" transform="translate(190.869141 0)"/>
      <use xlink:href="#DejaVuSans-2e" transform="translate(254.492188 0)"/>
      <use xlink:href="#DejaVuSans-30" transform="translate(286.279297 0)"/>
     </g>
    </g>
    <g id="line2d_31">
     <path d="M 3334.121357 438.967754 
L 3344.121357 438.967754 
L 3354.121357 438.967754 
" style="fill: none; stroke: #8c564b; stroke-width: 2; stroke-linecap: square"/>
    </g>
    <g id="text_17">
     <!-- 2019.0 -->
     <g transform="translate(3362.121357 442.467754) scale(0.1 -0.1)">
      <defs>
       <path id="DejaVuSans-39" d="M 703 97 
L 703 672 
Q 941 559 1184 500 
Q 1428 441 1663 441 
Q 2288 441 2617 861 
Q 2947 1281 2994 2138 
Q 2813 1869 2534 1725 
Q 2256 1581 1919 1581 
Q 1219 1581 811 2004 
Q 403 2428 403 3163 
Q 403 3881 828 4315 
Q 1253 4750 1959 4750 
Q 2769 4750 3195 4129 
Q 3622 3509 3622 2328 
Q 3622 1225 3098 567 
Q 2575 -91 1691 -91 
Q 1453 -91 1209 -44 
Q 966 3 703 97 
z
M 1959 2075 
Q 2384 2075 2632 2365 
Q 2881 2656 2881 3163 
Q 2881 3666 2632 3958 
Q 2384 4250 1959 4250 
Q 1534 4250 1286 3958 
Q 1038 3666 1038 3163 
Q 1038 2656 1286 2365 
Q 1534 2075 1959 2075 
z
" transform="scale(0.015625)"/>
      </defs>
      <use xlink:href="#DejaVuSans-32"/>
      <use xlink:href="#DejaVuSans-30" transform="translate(63.623047 0)"/>
      <use xlink:href="#DejaVuSans-31" transform="translate(127.246094 0)"/>
      <use xlink:href="#DejaVuSans-39" transform="translate(190.869141 0)"/>
      <use xlink:href="#DejaVuSans-2e" transform="translate(254.492188 0)"/>
      <use xlink:href="#DejaVuSans-30" transform="translate(286.279297 0)"/>
     </g>
    </g>
    <g id="line2d_32">
     <path d="M 3334.121357 453.645879 
L 3344.121357 453.645879 
L 3354.121357 453.645879 
" style="fill: none; stroke: #e377c2; stroke-width: 2; stroke-linecap: square"/>
    </g>
    <g id="text_18">
     <!-- 2021.0 -->
     <g transform="translate(3362.121357 457.145879) scale(0.1 -0.1)">
      <use xlink:href="#DejaVuSans-32"/>
      <use xlink:href="#DejaVuSans-30" transform="translate(63.623047 0)"/>
      <use xlink:href="#DejaVuSans-32" transform="translate(127.246094 0)"/>
      <use xlink:href="#DejaVuSans-31" transform="translate(190.869141 0)"/>
      <use xlink:href="#DejaVuSans-2e" transform="translate(254.492188 0)"/>
      <use xlink:href="#DejaVuSans-30" transform="translate(286.279297 0)"/>
     </g>
    </g>
    <g id="line2d_33">
     <path d="M 3334.121357 468.324004 
L 3344.121357 468.324004 
L 3354.121357 468.324004 
" style="fill: none; stroke: #7f7f7f; stroke-width: 2; stroke-linecap: square"/>
    </g>
    <g id="text_19">
     <!-- 2022.0 -->
     <g transform="translate(3362.121357 471.824004) scale(0.1 -0.1)">
      <use xlink:href="#DejaVuSans-32"/>
      <use xlink:href="#DejaVuSans-30" transform="translate(63.623047 0)"/>
      <use xlink:href="#DejaVuSans-32" transform="translate(127.246094 0)"/>
      <use xlink:href="#DejaVuSans-32" transform="translate(190.869141 0)"/>
      <use xlink:href="#DejaVuSans-2e" transform="translate(254.492188 0)"/>
      <use xlink:href="#DejaVuSans-30" transform="translate(286.279297 0)"/>
     </g>
    </g>
    <g id="line2d_34">
     <path d="M 3334.121357 483.002129 
L 3344.121357 483.002129 
L 3354.121357 483.002129 
" style="fill: none; stroke: #bcbd22; stroke-width: 2; stroke-linecap: square"/>
    </g>
    <g id="text_20">
     <!-- 2023.0 -->
     <g transform="translate(3362.121357 486.502129) scale(0.1 -0.1)">
      <defs>
       <path id="DejaVuSans-33" d="M 2597 2516 
Q 3050 2419 3304 2112 
Q 3559 1806 3559 1356 
Q 3559 666 3084 287 
Q 2609 -91 1734 -91 
Q 1441 -91 1130 -33 
Q 819 25 488 141 
L 488 750 
Q 750 597 1062 519 
Q 1375 441 1716 441 
Q 2309 441 2620 675 
Q 2931 909 2931 1356 
Q 2931 1769 2642 2001 
Q 2353 2234 1838 2234 
L 1294 2234 
L 1294 2753 
L 1863 2753 
Q 2328 2753 2575 2939 
Q 2822 3125 2822 3475 
Q 2822 3834 2567 4026 
Q 2313 4219 1838 4219 
Q 1578 4219 1281 4162 
Q 984 4106 628 3988 
L 628 4550 
Q 988 4650 1302 4700 
Q 1616 4750 1894 4750 
Q 2613 4750 3031 4423 
Q 3450 4097 3450 3541 
Q 3450 3153 3228 2886 
Q 3006 2619 2597 2516 
z
" transform="scale(0.015625)"/>
      </defs>
      <use xlink:href="#DejaVuSans-32"/>
      <use xlink:href="#DejaVuSans-30" transform="translate(63.623047 0)"/>
      <use xlink:href="#DejaVuSans-32" transform="translate(127.246094 0)"/>
      <use xlink:href="#DejaVuSans-33" transform="translate(190.869141 0)"/>
      <use xlink:href="#DejaVuSans-2e" transform="translate(254.492188 0)"/>
      <use xlink:href="#DejaVuSans-30" transform="translate(286.279297 0)"/>
     </g>
    </g>
    <g id="line2d_35">
     <path d="M 3334.121357 497.680254 
L 3344.121357 497.680254 
L 3354.121357 497.680254 
" style="fill: none; stroke: #17becf; stroke-width: 2; stroke-linecap: square"/>
    </g>
    <g id="text_21">
     <!-- 2024.0 -->
     <g transform="translate(3362.121357 501.180254) scale(0.1 -0.1)">
      <use xlink:href="#DejaVuSans-32"/>
      <use xlink:href="#DejaVuSans-30" transform="translate(63.623047 0)"/>
      <use xlink:href="#DejaVuSans-32" transform="translate(127.246094 0)"/>
      <use xlink:href="#DejaVuSans-34" transform="translate(190.869141 0)"/>
      <use xlink:href="#DejaVuSans-2e" transform="translate(254.492188 0)"/>
      <use xlink:href="#DejaVuSans-30" transform="translate(286.279297 0)"/>
     </g>
    </g>
    <g id="line2d_36">
     <path d="M 3334.121357 512.358379 
L 3344.121357 512.358379 
L 3354.121357 512.358379 
" style="fill: none; stroke: #1f77b4; stroke-width: 2; stroke-linecap: square"/>
    </g>
    <g id="text_22">
     <!-- 2025.0 -->
     <g transform="translate(3362.121357 515.858379) scale(0.1 -0.1)">
      <use xlink:href="#DejaVuSans-32"/>
      <use xlink:href="#DejaVuSans-30" transform="translate(63.623047 0)"/>
      <use xlink:href="#DejaVuSans-32" transform="translate(127.246094 0)"/>
      <use xlink:href="#DejaVuSans-35" transform="translate(190.869141 0)"/>
      <use xlink:href="#DejaVuSans-2e" transform="translate(254.492188 0)"/>
      <use xlink:href="#DejaVuSans-30" transform="translate(286.279297 0)"/>
     </g>
    </g>
    <g id="line2d_37">
     <path d="M 3334.121357 527.036504 
L 3344.121357 527.036504 
L 3354.121357 527.036504 
" style="fill: none; stroke-dasharray: 4.44,1.92; stroke-dashoffset: 0; stroke: #333333; stroke-opacity: 0.85; stroke-width: 1.2"/>
    </g>
    <g id="text_23">
     <!-- Centroid drift -->
     <g transform="translate(3362.121357 530.536504) scale(0.1 -0.1)">
      <use xlink:href="#DejaVuSans-43"/>
      <use xlink:href="#DejaVuSans-65" transform="translate(69.824219 0)"/>
      <use xlink:href="#DejaVuSans-6e" transform="translate(131.347656 0)"/>
      <use xlink:href="#DejaVuSans-74" transform="translate(194.726562 0)"/>
      <use xlink:href="#DejaVuSans-72" transform="translate(233.935547 0)"/>
      <use xlink:href="#DejaVuSans-6f" transform="translate(272.798828 0)"/>
      <use xlink:href="#DejaVuSans-69" transform="translate(333.980469 0)"/>
      <use xlink:href="#DejaVuSans-64" transform="translate(361.763672 0)"/>
      <use xlink:href="#DejaVuSans-20" transform="translate(425.240234 0)"/>
      <use xlink:href="#DejaVuSans-64" transform="translate(457.027344 0)"/>
      <use xlink:href="#DejaVuSans-72" transform="translate(520.503906 0)"/>
      <use xlink:href="#DejaVuSans-69" transform="translate(561.617188 0)"/>
      <use xlink:href="#DejaVuSans-66" transform="translate(589.400391 0)"/>
      <use xlink:href="#DejaVuSans-74" transform="translate(622.855469 0)"/>
     </g>
    </g>
   </g>
  </g>
 </g>
 <defs>
  <clipPath id="p05f4f5cc1f">
   <rect x="11.025367" y="352.478692" width="3249.113715" height="2591.913674"/>
  </clipPath>
 </defs>
</svg>
